<svg xmlns="http://www.w3.org/2000/svg" viewBox="0 0 500 500"><g id="freepik--background-simple--inject-31"><path d="M176.39,202.07c57.54-22.35,98.83-139.72,170.84-100,85.74,47.23-29,133.64-37.83,196C296.88,386,174.26,375.92,96.79,310.55c-28.87-24.37-35.43-82.72.34-102.18C136.19,187.12,143.41,214.87,176.39,202.07Z" style="fill:#407BFF"></path><path d="M176.39,202.07c57.54-22.35,98.83-139.72,170.84-100,85.74,47.23-29,133.64-37.83,196C296.88,386,174.26,375.92,96.79,310.55c-28.87-24.37-35.43-82.72.34-102.18C136.19,187.12,143.41,214.87,176.39,202.07Z" style="fill:#fff;opacity:0.9"></path></g><g id="freepik--Shadow--inject-31"><ellipse id="freepik--path--inject-31" cx="250" cy="416.24" rx="193.89" ry="11.32" style="fill:#f5f5f5"></ellipse></g><g id="freepik--sun-and-clouds--inject-31"><circle cx="345.88" cy="112.13" r="24.91" style="fill:#407BFF"></circle><path d="M382.07,95.6a39.69,39.69,0,0,0-9.7-13.14l.67-.74A40.59,40.59,0,0,1,383,95.19Z" style="fill:#407BFF;opacity:0.30000000000000004"></path><path d="M312.58,90.38l-.84-.55a40.68,40.68,0,0,1,34.14-18.47v1A39.66,39.66,0,0,0,312.58,90.38Z" style="fill:#407BFF;opacity:0.30000000000000004"></path><path d="M320.93,144.38a41.18,41.18,0,0,1-11.78-14.52l.9-.44a40.21,40.21,0,0,0,11.49,14.17Z" style="fill:#407BFF;opacity:0.30000000000000004"></path><path d="M364.38,148.47l-.46-.89a39.87,39.87,0,0,0,15.71-14.39l.84.53A40.81,40.81,0,0,1,364.38,148.47Z" style="fill:#407BFF;opacity:0.30000000000000004"></path><path d="M314.53,112.13h-1a32.38,32.38,0,0,1,32.35-32.35v1A31.38,31.38,0,0,0,314.53,112.13Z" style="fill:#407BFF;opacity:0.6000000000000001"></path><path d="M345.88,144.48v-1a31.38,31.38,0,0,0,31.35-31.35h1A32.38,32.38,0,0,1,345.88,144.48Z" style="fill:#407BFF;opacity:0.6000000000000001"></path><path d="M182.2,119.78c31.74,0,36.54-25,16.05-25-11.14,0-23.44,13.46-34.59,13.46s7-21-4.18-21c-14.49,0-29.95,21-40.38,21-11.15,0-1.79-9.62-12.94-9.62-9.84,0-20.82,10.09-45.68,18.1-2.18.7-2.4,3-.29,3Z" style="fill:#407BFF"></path><path d="M182.2,119.78c31.74,0,36.54-25,16.05-25-11.14,0-23.44,13.46-34.59,13.46s7-21-4.18-21c-14.49,0-29.95,21-40.38,21-11.15,0-1.79-9.62-12.94-9.62-9.84,0-20.82,10.09-45.68,18.1-2.18.7-2.4,3-.29,3Z" style="fill:#fff;opacity:0.7000000000000001"></path><path d="M406.47,193.11c16.74,0,26.11-18.67,17.79-18.67S401,184.5,392.63,184.5s11.29-15.72,3-15.72-27.93,15.72-36.25,15.72,6.07-9.78-2.25-9.78c-7.36,0-23,10.13-41.54,16.12-1.63.52-1.79,2.27-.21,2.27Z" style="fill:#407BFF"></path><path d="M406.47,193.11c16.74,0,26.11-18.67,17.79-18.67S401,184.5,392.63,184.5s11.29-15.72,3-15.72-27.93,15.72-36.25,15.72,6.07-9.78-2.25-9.78c-7.36,0-23,10.13-41.54,16.12-1.63.52-1.79,2.27-.21,2.27Z" style="fill:#fff;opacity:0.7000000000000001"></path><path d="M174.57,225.57c9.9,0,12-11,7.1-11s-10.36,5.94-15.28,5.94,3.08-9.29-1.85-9.29c-7.42,0-14,9.29-17.83,9.29-4.92,0-.79-4.24-5.71-4.24-4.35,0-9.2,4.45-20.18,8-1,.31-1.06,1.34-.13,1.34Z" style="fill:#407BFF"></path><path d="M174.57,225.57c9.9,0,12-11,7.1-11s-10.36,5.94-15.28,5.94,3.08-9.29-1.85-9.29c-7.42,0-14,9.29-17.83,9.29-4.92,0-.79-4.24-5.71-4.24-4.35,0-9.2,4.45-20.18,8-1,.31-1.06,1.34-.13,1.34Z" style="fill:#fff;opacity:0.7000000000000001"></path></g><g id="freepik--Character--inject-31"><path d="M264.53,183.35l1.25-.37,1.35-.41c.9-.28,1.79-.6,2.68-.92q2.69-1,5.21-2.15a40.21,40.21,0,0,0,4.81-2.62c.39-.23.73-.5,1.1-.74a10.59,10.59,0,0,0,1.05-.78l.51-.4c.15-.11.44-.38.22-.13s-.22.48-.19.46a3.4,3.4,0,0,0,0-1.45,16.17,16.17,0,0,0-.57-2.43,47.07,47.07,0,0,0-2-5.3c-1.58-3.56-3.41-7.2-5.28-10.71l3.68-2.61A76.53,76.53,0,0,1,285.9,163a46.62,46.62,0,0,1,3.09,5.84,24.73,24.73,0,0,1,1.17,3.44,11.06,11.06,0,0,1,.28,4.64,7.18,7.18,0,0,1-1.46,3.22,12.12,12.12,0,0,1-.89.92l-.64.61a15.9,15.9,0,0,1-1.31,1.17c-.45.37-.89.77-1.36,1.09a41.05,41.05,0,0,1-5.74,3.61,50.17,50.17,0,0,1-6,2.73c-1,.38-2.06.74-3.11,1.06s-2.06.62-3.29.9Z" style="fill:#ffc3bd"></path><path d="M276.16,156.37l-6.66-3.53,7.12-5.2s3.65,3.58,2.73,8.37Z" style="fill:#ffc3bd"></path><polygon points="266.54 146.03 272.55 143.15 276.62 147.64 269.5 152.84 266.54 146.03" style="fill:#ffc3bd"></polygon><polygon points="231.48 409.3 239.78 410.09 244.84 390.68 236.54 389.88 231.48 409.3" style="fill:#ffc3bd"></polygon><polygon points="191.3 390.2 198.59 394.38 208.1 377.18 200.81 373 191.3 390.2" style="fill:#ffc3bd"></polygon><path d="M199.67,393l-6.4-7a.66.66,0,0,0-.88-.11l-6.27,4.26a1.36,1.36,0,0,0-.2,2c2.28,2.41,3.49,3.45,6.31,6.53,1.73,1.9,5.27,6.34,7.66,9s5.11.4,4.35-.91c-3.41-5.84-3.89-9.44-4-12.34A2.28,2.28,0,0,0,199.67,393Z" style="fill:#263238"></path><path d="M241.49,407.57h-10a.84.84,0,0,0-.79.61l-2.18,7.93a1.24,1.24,0,0,0,1.22,1.58c3.53,0,5.21,0,9.61,0h13.46c3.66,0,4.43-3.7,2.92-4-6.79-1.5-10.71-3.57-12.8-5.55A2.1,2.1,0,0,0,241.49,407.57Z" style="fill:#263238"></path><polygon points="244.83 390.69 242.23 400.69 233.72 400.69 236.53 389.89 244.83 390.69" style="opacity:0.2"></polygon><polygon points="200.81 373 208.1 377.19 203.19 386.05 195.9 381.87 200.81 373" style="opacity:0.2"></polygon><circle cx="240.31" cy="145.23" r="16.31" style="fill:#407BFF"></circle><circle cx="240.31" cy="145.23" r="16.31" style="opacity:0.2"></circle><path d="M247.71,160.63c-13,5.9-32.34,13.82-43.22,4.72-16.13-13.49,16.3-13.59,37.83-30.91,16.2-13,35.26-14.94,38.18-6.94C285.29,140.61,271.15,150,247.71,160.63Z" style="fill:#407BFF"></path><path d="M256.46,139.84c-6-1.85-23.68,4.1-23.68,4.1-3.08,1.93-13.34,15.34-14.1,25.51,9.67-.39,20.66-5,29-8.82,6.14-2.78,11.65-5.48,16.34-8.19C264.15,147.42,260.77,141.17,256.46,139.84Z" style="opacity:0.2"></path><path d="M245.07,138.94s-14.85-.15-18,12.13,4.06,13.1-.33,19-8.61,8.44-7.5,13.33-10.19,5.83-9.17,13.07c3.22,22.77,53.66,16.26,54.14-.08s-12.08-15.44-6.64-20.88,6.72-10.78,2.39-14.83S271,132.61,245.07,138.94Z" style="fill:#263238"></path><path d="M266,182.78s7,1.76.35,51.51l-34.27,1c2.22-17.05-.67-29.05-6.09-45.38a5.42,5.42,0,0,1,4.4-6.83c2.5-.44,5.55-.89,8.65-1.13a109.09,109.09,0,0,1,15.56-.44A105.58,105.58,0,0,1,266,182.78Z" style="fill:#407BFF"></path><path d="M232.75,189.06,227,192.94c1.23,3.81,2.3,7.4,3.18,10.91C231.82,198.58,232.86,190.78,232.75,189.06Z" style="opacity:0.2"></path><path d="M240.11,164.36c1.12,5,2.36,14.13-1,17.57,0,0,3.94,7.79,16.61,13,4.9-8.56-1.05-13.4-1.05-13.4-5.62-1.18-5.6-5.32-4.74-9.24Z" style="fill:#ffc3bd"></path><path d="M244.1,167.58l5.79,4.66a15.92,15.92,0,0,0-.4,2.78c-2.14-.25-5.41-2.07-5.7-4.29A8.77,8.77,0,0,1,244.1,167.58Z" style="opacity:0.2"></path><path d="M234.76,157c3,7.81,4.15,11.18,9.48,14,8,4.22,16.95-1.21,16.31-9.77-.57-7.71-5.44-19.19-14.25-19.87A11.44,11.44,0,0,0,234.76,157Z" style="fill:#ffc3bd"></path><path d="M244.94,143.69c.62,5.42-3.61,13.75-8.27,17.31.17,4.72-8.23.65-6.89-7.06S243.88,134.42,244.94,143.69Z" style="fill:#263238"></path><path d="M245.13,156.57l-14.9,6.25a.39.39,0,0,1-.52-.21h0a.4.4,0,0,1,.21-.52l14.91-6.25a.4.4,0,0,1,.52.21h0A.41.41,0,0,1,245.13,156.57Z" style="fill:#263238"></path><path d="M241,144.56c2.46,2.74,18.62,4.15,16.55-.34C254.57,137.78,234.87,137.73,241,144.56Z" style="fill:#263238"></path><path d="M234.88,163.9a6.11,6.11,0,0,0,3.92,2.56c2.12.38,3-1.56,2.21-3.45-.68-1.7-2.6-3.95-4.64-3.47A2.75,2.75,0,0,0,234.88,163.9Z" style="fill:#ffc3bd"></path><path d="M266.38,234.29s9.31,50.88,1.6,86.93c-5.17,24.15-22.2,76.57-22.2,76.57l-13-.33s11.6-57.68,17.08-74.85c5-34.43-6-87.67-6-87.67Z" style="fill:#263238"></path><path d="M253.89,259.44c-1.76-7.39-4.06-4.64-5.74,2.07,1.23,9.33,2.34,20.21,2.78,31.11C253.42,285.6,257,272.31,253.89,259.44Z" style="opacity:0.2"></path><polygon points="246.97 399.43 231.58 397.74 232.36 392.36 248.07 394.47 246.97 399.43" style="fill:#407BFF"></polygon><path d="M258.9,234.61s-7.4,56.77-22.1,86.37c-11.87,23.92-30.37,63.91-30.37,63.91l-9.8-6.24s15.78-49.77,21.81-62.61c18.95-40.32,3.13-65.15,13.67-80.77Z" style="fill:#263238"></path><polygon points="207.49 385.79 194.97 378.29 197.25 372.9 210.59 381.1 207.49 385.79" style="fill:#407BFF"></polygon><path d="M231.54,233.28l-1.46,3.11c-.11.24.17.48.57.46l36-1c.31,0,.56-.16.57-.36l.22-3.07c0-.22-.25-.39-.59-.38l-34.71,1A.61.61,0,0,0,231.54,233.28Z" style="fill:#407BFF"></path><path d="M231.54,233.28l-1.46,3.11c-.11.24.17.48.57.46l36-1c.31,0,.56-.16.57-.36l.22-3.07c0-.22-.25-.39-.59-.38l-34.71,1A.61.61,0,0,0,231.54,233.28Z" style="fill:#fff;opacity:0.5"></path><path d="M236.31,237l-.93,0c-.19,0-.33-.08-.32-.2l.32-4c0-.12.17-.22.36-.22l.93,0c.18,0,.32.09.31.2l-.32,4C236.65,236.92,236.49,237,236.31,237Z" style="fill:#263238"></path><path d="M264,236.23l-.93,0c-.18,0-.32-.09-.31-.2l.32-4c0-.12.17-.22.35-.23l.93,0c.19,0,.33.08.32.2l-.32,4C264.34,236.13,264.18,236.23,264,236.23Z" style="fill:#263238"></path><path d="M250.15,236.63l-.93,0c-.18,0-.33-.09-.32-.21l.32-4c0-.11.17-.21.36-.22l.93,0c.18,0,.33.09.32.21l-.32,4C250.5,236.52,250.34,236.62,250.15,236.63Z" style="fill:#263238"></path><path d="M248.36,155.15c.21.65.72,1.06,1.15.93s.6-.77.39-1.42-.72-1.07-1.14-.93S248.16,154.5,248.36,155.15Z" style="fill:#263238"></path><path d="M255.7,152.81c.2.64.71,1.06,1.14.93s.6-.78.39-1.42-.72-1.07-1.14-.93S255.49,152.16,255.7,152.81Z" style="fill:#263238"></path><path d="M255.91,151.48l1.42-.95S256.92,152,255.91,151.48Z" style="fill:#263238"></path><path d="M253.31,154.76a18.17,18.17,0,0,0,3.63,3.4,2.93,2.93,0,0,1-2.17,1.17Z" style="fill:#ed847e"></path><path d="M252.06,162.85a5.51,5.51,0,0,1-3.94-1,.16.16,0,0,1,0-.24.17.17,0,0,1,.24,0,5.42,5.42,0,0,0,4.86.68.16.16,0,0,1,.21.11.15.15,0,0,1-.11.2A5.94,5.94,0,0,1,252.06,162.85Z" style="fill:#263238"></path><path d="M242.59,151.8a.39.39,0,0,1-.18,0,.34.34,0,0,1-.12-.46,3.87,3.87,0,0,1,3-2,.33.33,0,0,1,.35.31.33.33,0,0,1-.31.35,3.24,3.24,0,0,0-2.41,1.7A.32.32,0,0,1,242.59,151.8Z" style="fill:#263238"></path><path d="M256.83,147.13a.41.41,0,0,1-.16,0,3.26,3.26,0,0,0-2.76,1.06.33.33,0,0,1-.46.06.33.33,0,0,1-.06-.47,3.87,3.87,0,0,1,3.33-1.31.33.33,0,0,1,.11.63Z" style="fill:#263238"></path><path d="M254.43,152a.25.25,0,0,1-.17,0A3.28,3.28,0,0,0,251.5,153a.33.33,0,1,1-.52-.4,3.86,3.86,0,0,1,3.33-1.32.34.34,0,0,1,.31.36A.34.34,0,0,1,254.43,152Z" style="fill:#263238"></path><path d="M233.18,181l.08,2c11.5-.42,21.25,10.7,21.77,24.84s-8.4,25.94-19.91,26.36l.08,2.05c12.42-.45,22.05-13.2,21.5-28.47S245.6,180.5,233.18,181Z" style="fill:#407BFF"></path><path d="M233.18,181l.08,2c11.5-.42,21.25,10.7,21.77,24.84s-8.4,25.94-19.91,26.36l.08,2.05c12.42-.45,22.05-13.2,21.5-28.47S245.61,180.5,233.18,181Z" style="fill:#fff;opacity:0.5"></path><path d="M233.18,181l.08,2c-11.5.41-20.42,12.22-19.91,26.36s10.27,25.26,21.77,24.84l.08,2.05c-12.42.45-23-11.56-23.52-26.83S220.76,181.41,233.18,181Z" style="fill:#407BFF"></path><path d="M233.18,181l.08,2c-11.5.41-20.42,12.22-19.91,26.36s10.27,25.26,21.77,24.84l.08,2.05c-12.42.45-23-11.56-23.52-26.83S220.76,181.41,233.18,181Z" style="fill:#fff;opacity:0.5"></path><path d="M253.63,246.49l-36.27,1.32a11.94,11.94,0,0,1-12.33-13l.56-6.21,1.06-11.77.39-4.26a3.25,3.25,0,0,1,3.12-3l48-1.75a3.26,3.26,0,0,1,3.34,2.74l.76,4.76,2,12.66.74,4.67A11.93,11.93,0,0,1,253.63,246.49Z" style="fill:#407BFF"></path><path d="M253.63,246.49l-36.27,1.32a11.94,11.94,0,0,1-12.33-13l.56-6.21,1.06-11.77.39-4.26a3.25,3.25,0,0,1,3.12-3l48-1.75a3.26,3.26,0,0,1,3.34,2.74l.76,4.76,2,12.66.74,4.67A11.93,11.93,0,0,1,253.63,246.49Z" style="fill:#fff;opacity:0.30000000000000004"></path><g style="opacity:0.2"><path d="M264.25,228c-2.63-.69-4.33-2.34-8.87-2.18-6.75.25-6.65,2.95-13.42,3.19s-6.85-2.45-13.62-2.2-6.67,2.94-13.43,3.19c-5,.18-6.27-.63-9.32-1.42l1.06-11.77c2.12.79,3.92,2,7.85,1.87,6.75-.25,6.65-3,13.42-3.21s6.85,2.47,13.62,2.22,6.67-3,13.43-3.2a19.1,19.1,0,0,1,7.28.85Z" style="fill:#fff"></path></g><path d="M232.76,191.36c-3,3.62-6.06,7.47-8.85,11.3-1.38,1.93-2.7,3.89-3.89,5.84a28.64,28.64,0,0,0-2.75,5.63,5.06,5.06,0,0,0-.26,2.13,10.64,10.64,0,0,0,.57,2.65,29.55,29.55,0,0,0,2.93,5.84,68,68,0,0,0,4.08,5.76c1.45,1.88,3,3.75,4.59,5.5l.08.09a2.26,2.26,0,0,1-3,3.32,61.87,61.87,0,0,1-11.35-10.61,33.19,33.19,0,0,1-4.45-7,18,18,0,0,1-1.4-4.49,13.33,13.33,0,0,1,.18-5.23,32.28,32.28,0,0,1,3.22-7.91,73.9,73.9,0,0,1,4.09-6.68,123,123,0,0,1,9.38-12.13,4.55,4.55,0,0,1,6.93,5.91Z" style="fill:#ffc3bd"></path><path d="M227.42,234.47l7,2.9-5.58,4.91s-4.26-2.53-4.34-6Z" style="fill:#ffc3bd"></path><polygon points="236.99 242.28 231.26 245.69 228.8 242.28 234.38 237.37 236.99 242.28" style="fill:#ffc3bd"></polygon><path d="M202.27,397a1.22,1.22,0,0,1-.33,0c-1.05-.1-2.12-1.75-2.66-2.73a.15.15,0,0,1,0-.18.18.18,0,0,1,.17-.06c.34.09,3.27.86,3.6,1.87a.64.64,0,0,1-.14.64A1.28,1.28,0,0,1,202.27,397Zm-2.5-2.52c.79,1.34,1.6,2.15,2.2,2.21a.79.79,0,0,0,.69-.34.31.31,0,0,0,.08-.33C202.54,395.39,200.78,394.77,199.77,394.47Z" style="fill:#407BFF"></path><path d="M202.07,394.35a6,6,0,0,1-2.7,0,.15.15,0,0,1-.11-.12.18.18,0,0,1,.05-.16c.07-.07,1.87-1.69,3.07-1.56a1,1,0,0,1,.75.43.67.67,0,0,1,0,.83A1.89,1.89,0,0,1,202.07,394.35Zm-2.29-.23c1,.16,2.73,0,3.12-.53.06-.09.12-.22-.05-.45a.67.67,0,0,0-.5-.29C201.53,392.76,200.29,393.69,199.78,394.12Z" style="fill:#407BFF"></path><path d="M245.93,409.19a13.38,13.38,0,0,1-2.73-.34.18.18,0,0,1-.13-.15.18.18,0,0,1,.09-.17c.41-.19,4.05-1.87,5-1.25a.54.54,0,0,1,.24.52,1.2,1.2,0,0,1-.49.93A3.27,3.27,0,0,1,245.93,409.19Zm-2.16-.57c1.08.21,3.07.47,3.9-.15a.91.91,0,0,0,.36-.69.22.22,0,0,0-.09-.22C247.43,407.21,245.28,408,243.77,408.62Z" style="fill:#407BFF"></path><path d="M243.23,408.85a.14.14,0,0,1-.1,0,.17.17,0,0,1-.06-.16c0-.15.86-3.74,2.83-3.51.5.06.63.3.66.5.12.91-2.17,2.75-3.26,3.2Zm2.49-3.39c-1.26,0-2,2.09-2.23,2.92,1.18-.62,2.82-2.11,2.74-2.7,0,0,0-.17-.37-.21Z" style="fill:#407BFF"></path><path d="M248.58,153.82l1.41-.94S249.58,154.35,248.58,153.82Z" style="fill:#263238"></path><path d="M252.76,154.76a4.42,4.42,0,1,1-4.42-4.43A4.42,4.42,0,0,1,252.76,154.76Z" style="fill:#263238"></path><g style="opacity:0.30000000000000004"><path d="M248.34,150.34h-.07l-1.48,8.55a4,4,0,0,0,1.55.29,3.43,3.43,0,0,0,.65-.05l1.43-8.28A4.54,4.54,0,0,0,248.34,150.34Z" style="fill:#fff"></path><path d="M250.87,151.14,249.51,159a4.55,4.55,0,0,0,1.37-.65l1.06-6.19A4.11,4.11,0,0,0,250.87,151.14Z" style="fill:#fff"></path></g><path d="M262.56,151.43a4.43,4.43,0,1,1-4.43-4.42A4.42,4.42,0,0,1,262.56,151.43Z" style="fill:#263238"></path><g style="opacity:0.30000000000000004"><path d="M258.14,147h-.08l-1.47,8.56a4.22,4.22,0,0,0,1.55.28,4.73,4.73,0,0,0,.65,0l1.43-8.29A4.6,4.6,0,0,0,258.14,147Z" style="fill:#fff"></path><path d="M260.66,147.81l-1.36,7.89a4.22,4.22,0,0,0,1.37-.65l1.06-6.19A4.11,4.11,0,0,0,260.66,147.81Z" style="fill:#fff"></path></g></g></svg>