<svg xmlns="http://www.w3.org/2000/svg" viewBox="0 0 500 500"><g id="freepik--background-simple--inject-195"><path d="M300.21,353.27C358.13,336,437.05,306.32,437.31,234c.29-80.24-67.23-94-134.13-85-31.3,4.25-49.94-13.28-72.27-31.61-28.82-23.65-61.21-33-98.46-28.17C35.07,101.84,62.6,273.6,105.29,325.89,147,377,243.63,370.09,300.21,353.27Z" style="fill:#407BFF"></path><path d="M300.21,353.27C358.13,336,437.05,306.32,437.31,234c.29-80.24-67.23-94-134.13-85-31.3,4.25-49.94-13.28-72.27-31.61-28.82-23.65-61.21-33-98.46-28.17C35.07,101.84,62.6,273.6,105.29,325.89,147,377,243.63,370.09,300.21,353.27Z" style="fill:#fff;opacity:0.9"></path></g><g id="freepik--Shadow--inject-195"><ellipse id="freepik--path--inject-195" cx="245.18" cy="412.39" rx="193.89" ry="11.32" style="fill:#f5f5f5"></ellipse></g><g id="freepik--trash-bin--inject-195"><rect x="133.26" y="351.6" width="38.39" height="5.91" style="fill:#407BFF"></rect><path d="M134.83,355h35.25a3.27,3.27,0,0,1,3.27,3.27v57.61a0,0,0,0,1,0,0h-41.8a0,0,0,0,1,0,0V358.28A3.27,3.27,0,0,1,134.83,355Z" style="fill:#407BFF"></path><path d="M134.83,355h35.25a3.27,3.27,0,0,1,3.27,3.27v57.61a0,0,0,0,1,0,0h-41.8a0,0,0,0,1,0,0V358.28A3.27,3.27,0,0,1,134.83,355Z" style="fill:#fff;opacity:0.5"></path><rect x="131.55" y="344.33" width="41.8" height="9.09" rx="3.61" style="fill:#407BFF"></rect><rect x="131.55" y="344.33" width="41.8" height="9.09" rx="3.61" style="fill:#fff;opacity:0.7000000000000001"></rect><polygon points="143.63 415.89 124.09 415.89 124.09 413.17 143.63 411.35 143.63 415.89" style="fill:#407BFF"></polygon><polygon points="143.63 415.89 124.09 415.89 124.09 413.17 143.63 411.35 143.63 415.89" style="fill:#fff;opacity:0.7000000000000001"></polygon></g><g id="freepik--Map--inject-195"><path d="M318.55,121.74q-22.68-6.33-45.27-13-22,6.63-44,13-21.4-6.37-42.71-13-23.24,6.67-46.56,13L105,263.81q30.31-6.39,60.57-13,28.33,6.62,56.73,13,29-6.36,58-13,29.61,6.65,59.29,13,27.75-6.39,55.44-13L360,108.74Q339.31,115.37,318.55,121.74Z" style="fill:#407BFF"></path><path d="M318.55,121.74q-22.68-6.33-45.27-13-22,6.63-44,13-21.4-6.37-42.71-13-23.24,6.67-46.56,13L105,263.81q30.31-6.39,60.57-13,28.33,6.62,56.73,13,29-6.36,58-13,29.61,6.65,59.29,13,27.75-6.39,55.44-13L360,108.74Q339.31,115.37,318.55,121.74Z" style="fill:#fff;opacity:0.8"></path><path d="M222.69,255.56q28.62-6.36,57.19-13,29.21,6.65,58.48,13,23.13-5.38,46.23-11-14.52-62.79-29-125.57-17.85,5.61-35.79,11-23.08-6.33-46.08-13-22.38,6.61-44.81,13-21.8-6.37-43.52-13-19.86,5.59-39.77,11-14.52,62.78-29,125.56,25.13-5.42,50.21-11Q194.7,249.16,222.69,255.56Z" style="fill:#407BFF"></path><path d="M222.69,255.56q28.62-6.36,57.19-13,29.21,6.65,58.48,13,23.13-5.38,46.23-11-14.52-62.79-29-125.57-17.85,5.61-35.79,11-23.08-6.33-46.08-13-22.38,6.61-44.81,13-21.8-6.37-43.52-13-19.86,5.59-39.77,11-14.52,62.78-29,125.56,25.13-5.42,50.21-11Q194.7,249.16,222.69,255.56Z" style="fill:#fff;opacity:0.4"></path><path d="M265.93,218.17c-.75-8-1.36-15.27-4.5-19.47-7-9.29-23.75-7.31-34.27-5.39-1.17-2-4.17-7.57-7.46-21-3.14-12.82-17.66-19-28.86-22.61-3.16-1-7.07-2.34-7.72-3.26-.93-4.23-5-4.43-9-4.61-3.21-.15-6.87-.32-9.79-2.26-2.61-1.74.39-9.95,4.3-17.86l-3.29.9c-.28.61-.57,1.22-.85,1.84-4.65,10.38-7.05,17-3.15,19.52s8.21,2.69,11.77,2.86,5.26.36,5.48,1.48c.58,3,4.29,4.33,10.35,6.19,10.33,3.17,22.89,8,26.06,19.39,5.3,19,8.57,23.5,9.19,24.07l.93.86,1.29-.27c9.41-1.79,24.7-3.93,30.79,2.92,2.39,2.69,3,9.89,3.47,17.05.53,8.91.21,19,2.92,27.84l7.9-1.82C267.56,235.51,266.68,226.13,265.93,218.17Z" style="fill:#407BFF"></path><path d="M265.93,218.17c-.75-8-1.36-15.27-4.5-19.47-7-9.29-23.75-7.31-34.27-5.39-1.17-2-4.17-7.57-7.46-21-3.14-12.82-17.66-19-28.86-22.61-3.16-1-7.07-2.34-7.72-3.26-.93-4.23-5-4.43-9-4.61-3.21-.15-6.87-.32-9.79-2.26-2.61-1.74.39-9.95,4.3-17.86l-3.29.9c-.28.61-.57,1.22-.85,1.84-4.65,10.38-7.05,17-3.15,19.52s8.21,2.69,11.77,2.86,5.26.36,5.48,1.48c.58,3,4.29,4.33,10.35,6.19,10.33,3.17,22.89,8,26.06,19.39,5.3,19,8.57,23.5,9.19,24.07l.93.86,1.29-.27c9.41-1.79,24.7-3.93,30.79,2.92,2.39,2.69,3,9.89,3.47,17.05.53,8.91.21,19,2.92,27.84l7.9-1.82C267.56,235.51,266.68,226.13,265.93,218.17Z" style="fill:#fff;opacity:0.2"></path><g style="opacity:0.5"><path d="M281.28,168.41l33.27,2.8c.95,7.56,1.42,11.35,2.37,18.91L294.63,188l-.85-10.16-12-1.51C281.56,173.17,281.46,171.58,281.28,168.41Z" style="fill:#fff"></path><path d="M280,179.26l11.18,1.52.85,11-11.38-.88Z" style="fill:#fff"></path></g><path d="M334,145.91c-3.56,1.41-5.35,2.11-9,3.52l1.55,10.14c3.73-1.17,5.58-1.75,9.27-2.93C335.12,152.35,334.75,150.2,334,145.91Z" style="fill:#fff;opacity:0.5"></path><path d="M167.36,209.57c-7,2.19-10.55,3.28-17.7,5.46-1.17,6.28-1.76,9.43-2.94,15.71,7.28-1.82,10.89-2.72,18.05-4.54C165.8,219.55,166.32,216.22,167.36,209.57Z" style="fill:#fff;opacity:0.5"></path><path d="M276,164.43q24.51,2,49,4l.32,0q19.62-5.3,39.18-10.79l-1-4.13q-19.54,5.56-39.15,10.88l-17.81-1.45q-7.31-20.19-14-40.54l-5-1.42q6.68,20.88,13.94,41.55l-26.21-2.15c-7,2.54-10.55,3.82-17.73,6.36H227.21q-22.82-3.6-45.62-7.29,8.73-19.11,16.84-38.47l-3.27-1q-8.43,19.79-17.48,39.28-20.34,3-40.7,5.89c-.37,1.62-.56,2.43-.93,4q20.73-3,41.47-6c5.29,12.76,11.14,25.22,17.21,37.63L172.58,199Q149.53,205.13,126.4,211c-.58,2.49-.87,3.74-1.44,6.23q23.69-5.92,47.31-12.08l25.2,2c4.56,15.5,9.52,30.88,15,46.07l5.27,1.2C212,239,206.81,223.31,202,207.53l22.73,1.84Q252,216.6,279.4,223.54q19.44-6.25,38.79-12.8c5.27,7.89,8,11.83,13.58,19.72q16.58,9.6,33.41,18.79l8.26-2Q354.69,237,336.17,226.36c-5-7-7.46-10.54-12.22-17.57l7.21-2.47q21.39-3.87,42.77-7.83c-.57-2.44-.85-3.66-1.41-6.1q-21.88,4.1-43.77,8.1-24.87,8.59-49.86,16.78-15.12-3.86-30.21-7.83,5.79-19.47,10.81-39.15C266.15,168,269.45,166.78,276,164.43Zm-31.29,43.95c-7.47-2-11.18-3-18.51-4.94l-26.47-2.17c-6.17-12.39-12.14-24.84-17.54-37.59q22.22,3.56,44.44,7l28.77,0Q250.37,189.65,244.66,208.38Z" style="fill:#fff"></path><path d="M165.55,250.81q-30.26,6.62-60.57,13l35-142.07q23.32-6.34,46.56-13Z" style="opacity:0.1"></path><path d="M280.29,250.81q-29,6.65-58,13,3.5-71,7-142.07,22-6.37,44-13Q276.78,179.78,280.29,250.81Z" style="opacity:0.1"></path><path d="M395,250.81q-27.69,6.62-55.44,13l-21-142.07q20.76-6.37,41.43-13Z" style="opacity:0.1"></path><path d="M337.44,157.57c0,1.11-2.78,2-6.2,2s-6.19-.89-6.19-2,2.77-2,6.19-2S337.44,156.47,337.44,157.57Z" style="opacity:0.1"></path><path d="M331.76,156.9c3.13,0,5.68-6.14,5.68-9.27a5.69,5.69,0,0,0-5.68-5.69h-1a5.68,5.68,0,0,0-5.68,5.69c0,3.13,2.54,9.27,5.68,9.27Zm-2.27-9.27a1.8,1.8,0,1,1,1.75,2.2A2.27,2.27,0,0,1,329.49,147.63Z" style="fill:#263238"></path><path d="M330.73,141.94a5.68,5.68,0,0,0-5.68,5.69c0,3.13,2.54,9.27,5.68,9.27s5.68-6.14,5.68-9.27A5.68,5.68,0,0,0,330.73,141.94Zm0,7.95a2.27,2.27,0,1,1,2.27-2.26A2.26,2.26,0,0,1,330.73,149.89Z" style="fill:#407BFF"></path><path d="M330.73,141.94a5.68,5.68,0,0,0-5.68,5.69c0,3.13,2.54,9.27,5.68,9.27s5.68-6.14,5.68-9.27A5.68,5.68,0,0,0,330.73,141.94Zm0,7.95a2.27,2.27,0,1,1,2.27-2.26A2.26,2.26,0,0,1,330.73,149.89Z" style="opacity:0.30000000000000004"></path><path d="M292.17,209.2c0,1.1-2.77,2-6.19,2s-6.2-.9-6.2-2,2.78-2,6.2-2S292.17,208.09,292.17,209.2Z" style="opacity:0.1"></path><path d="M286.49,208.52c3.14,0,5.68-6.13,5.68-9.27a5.68,5.68,0,0,0-5.68-5.68h-1a5.68,5.68,0,0,0-5.69,5.68c0,3.14,2.55,9.27,5.69,9.27Zm-2.26-9.27a1.8,1.8,0,1,1,1.75,2.2A2.25,2.25,0,0,1,284.23,199.25Z" style="fill:#263238"></path><path d="M285.47,193.57a5.68,5.68,0,0,0-5.69,5.68c0,3.14,2.55,9.27,5.69,9.27s5.68-6.13,5.68-9.27A5.68,5.68,0,0,0,285.47,193.57Zm0,8a2.27,2.27,0,1,1,2.26-2.27A2.27,2.27,0,0,1,285.47,201.52Z" style="fill:#407BFF"></path><path d="M285.47,193.57a5.68,5.68,0,0,0-5.69,5.68c0,3.14,2.55,9.27,5.69,9.27s5.68-6.13,5.68-9.27A5.68,5.68,0,0,0,285.47,193.57Zm0,8a2.27,2.27,0,1,1,2.26-2.27A2.27,2.27,0,0,1,285.47,201.52Z" style="opacity:0.30000000000000004"></path><path d="M197.48,214c0,1.11-2.78,2-6.2,2s-6.19-.89-6.19-2,2.77-2,6.19-2S197.48,212.91,197.48,214Z" style="opacity:0.1"></path><path d="M191.8,213.34c3.13,0,5.68-6.14,5.68-9.27a5.69,5.69,0,0,0-5.68-5.69h-1a5.68,5.68,0,0,0-5.68,5.69c0,3.13,2.54,9.27,5.68,9.27Zm-2.27-9.27a1.8,1.8,0,1,1,1.75,2.2A2.27,2.27,0,0,1,189.53,204.07Z" style="fill:#263238"></path><path d="M190.77,198.38a5.68,5.68,0,0,0-5.68,5.69c0,3.13,2.54,9.27,5.68,9.27s5.68-6.14,5.68-9.27A5.68,5.68,0,0,0,190.77,198.38Zm0,8a2.27,2.27,0,1,1,2.26-2.26A2.26,2.26,0,0,1,190.77,206.33Z" style="fill:#407BFF"></path><path d="M190.77,198.38a5.68,5.68,0,0,0-5.68,5.69c0,3.13,2.54,9.27,5.68,9.27s5.68-6.14,5.68-9.27A5.68,5.68,0,0,0,190.77,198.38Zm0,8a2.27,2.27,0,1,1,2.26-2.26A2.26,2.26,0,0,1,190.77,206.33Z" style="opacity:0.30000000000000004"></path><path d="M177.14,156.23c0,1.11-2.77,2-6.19,2s-6.2-.89-6.2-2,2.78-2,6.2-2S177.14,155.13,177.14,156.23Z" style="opacity:0.1"></path><path d="M171.46,155.56c3.14,0,5.68-6.14,5.68-9.27a5.68,5.68,0,0,0-5.68-5.69h-1a5.69,5.69,0,0,0-5.69,5.69c0,3.13,2.55,9.27,5.69,9.27Zm-2.26-9.27a1.8,1.8,0,1,1,1.75,2.2A2.25,2.25,0,0,1,169.2,146.29Z" style="fill:#263238"></path><path d="M170.44,140.6a5.69,5.69,0,0,0-5.69,5.69c0,3.13,2.55,9.27,5.69,9.27s5.68-6.14,5.68-9.27A5.69,5.69,0,0,0,170.44,140.6Zm0,8a2.27,2.27,0,1,1,2.26-2.26A2.27,2.27,0,0,1,170.44,148.55Z" style="fill:#407BFF"></path><path d="M170.44,140.6a5.69,5.69,0,0,0-5.69,5.69c0,3.13,2.55,9.27,5.69,9.27s5.68-6.14,5.68-9.27A5.69,5.69,0,0,0,170.44,140.6Zm0,8a2.27,2.27,0,1,1,2.26-2.26A2.27,2.27,0,0,1,170.44,148.55Z" style="opacity:0.30000000000000004"></path><path d="M274.14,159.56c0,1.1-2.77,2-6.19,2s-6.2-.9-6.2-2,2.78-2,6.2-2S274.14,158.45,274.14,159.56Z" style="opacity:0.1"></path><path d="M268.46,158.88c3.14,0,5.68-6.13,5.68-9.27a5.68,5.68,0,0,0-5.68-5.69h-1a5.69,5.69,0,0,0-5.69,5.69c0,3.14,2.55,9.27,5.69,9.27Zm-2.26-9.27a1.8,1.8,0,1,1,1.75,2.2A2.25,2.25,0,0,1,266.2,149.61Z" style="fill:#263238"></path><path d="M267.44,143.92a5.69,5.69,0,0,0-5.69,5.69c0,3.14,2.55,9.27,5.69,9.27s5.68-6.13,5.68-9.27A5.69,5.69,0,0,0,267.44,143.92Zm0,8a2.27,2.27,0,1,1,2.26-2.26A2.27,2.27,0,0,1,267.44,151.87Z" style="fill:#407BFF"></path><path d="M267.44,143.92a5.69,5.69,0,0,0-5.69,5.69c0,3.14,2.55,9.27,5.69,9.27s5.68-6.13,5.68-9.27A5.69,5.69,0,0,0,267.44,143.92Zm0,8a2.27,2.27,0,1,1,2.26-2.26A2.27,2.27,0,0,1,267.44,151.87Z" style="opacity:0.30000000000000004"></path></g><g id="freepik--Character--inject-195"><path d="M335.76,316.41a96.21,96.21,0,0,1-23.86,0c-8-.84-13.18-7.37-11.75-13.47.12-.47.17-.71.28-1.19,1.44-6.1,7.64-9.78,13.95-9.12a76.62,76.62,0,0,0,18.9,0c6.31-.66,12.51,3,13.94,9.12.12.48.17.72.28,1.19C348.94,309,343.73,315.57,335.76,316.41Z" style="fill:#407BFF"></path><polygon points="326.59 313.49 325.69 335.43 329.29 335.43 330.19 313.49 326.59 313.49" style="fill:#263238"></polygon><polygon points="313.07 335.43 316.67 335.43 317.57 313.49 313.97 313.49 313.07 335.43" style="fill:#263238"></polygon><g style="opacity:0.6000000000000001"><polygon points="326.59 313.49 325.69 335.43 329.29 335.43 330.19 313.49 326.59 313.49" style="fill:#fff"></polygon><polygon points="313.07 335.43 316.67 335.43 317.57 313.49 313.97 313.49 313.07 335.43" style="fill:#fff"></polygon></g><polygon points="327.26 342.12 286.23 342.12 282.63 416.1 285.59 416.1 290.99 348.03 303.85 348.03 305.6 416.1 307.89 416.1 309.64 348.03 322.5 348.03 327.9 416.1 330.86 416.1 327.26 342.12" style="fill:#263238"></polygon><polygon points="327.26 342.12 286.23 342.12 282.63 416.1 285.59 416.1 290.99 348.03 303.85 348.03 305.6 416.1 307.89 416.1 309.64 348.03 322.5 348.03 327.9 416.1 330.86 416.1 327.26 342.12" style="fill:#fff;opacity:0.6000000000000001"></polygon><polygon points="327.26 342.12 286.23 342.12 285.94 348.03 290.99 348.03 303.85 348.03 309.64 348.03 322.5 348.03 327.55 348.03 327.26 342.12" style="opacity:0.2"></polygon><path d="M334,316.41a96.29,96.29,0,0,1-23.87,0c-8-.84-13.17-7.37-11.74-13.47.11-.47.17-.71.28-1.19,1.43-6.1,7.63-9.78,13.94-9.12a76.62,76.62,0,0,0,18.9,0c6.32-.66,12.52,3,13.95,9.12.11.48.17.72.28,1.19C347.17,309,342,315.57,334,316.41Z" style="fill:#407BFF"></path><g style="opacity:0.5"><path d="M334,316.41a96.29,96.29,0,0,1-23.87,0c-8-.84-13.17-7.37-11.74-13.47.11-.47.17-.71.28-1.19,1.43-6.1,7.63-9.78,13.94-9.12a76.62,76.62,0,0,0,18.9,0c6.32-.66,12.52,3,13.95,9.12.11.48.17.72.28,1.19C347.17,309,342,315.57,334,316.41Z" style="fill:#fff"></path></g><g style="opacity:0.7000000000000001"><path d="M333,304.19a1.55,1.55,0,1,1-1.55-1.55A1.55,1.55,0,0,1,333,304.19Z" style="fill:#fff"></path><path d="M314.28,304.19a1.56,1.56,0,1,1-1.55-1.55A1.55,1.55,0,0,1,314.28,304.19Z" style="fill:#fff"></path></g><path d="M332.59,343.44H280.9a4.92,4.92,0,0,1-4.93-4.93h0a4.93,4.93,0,0,1,4.93-4.93h51.69a4.93,4.93,0,0,1,4.93,4.93h0A4.92,4.92,0,0,1,332.59,343.44Z" style="fill:#407BFF"></path><path d="M332.59,343.44H280.9a4.92,4.92,0,0,1-4.93-4.93h0a4.93,4.93,0,0,1,4.93-4.93h51.69a4.93,4.93,0,0,1,4.93,4.93h0A4.92,4.92,0,0,1,332.59,343.44Z" style="fill:#fff;opacity:0.5"></path><path d="M268.39,238.38s-12.35-9.57-1.3-19c0,0,12.27-13.88,19.9-3.75,1.33,1.76,7.12-.08,8,7,.82,6.46,5.32,3,4.87,10.27-.38,6.18,4.28,4.7,4.2,8.55-.1,5-12,2.55-17.77,5.7-6.45,3.53-12.06,9.6-13.44,3A38.12,38.12,0,0,0,268.39,238.38Z" style="fill:#263238"></path><path d="M281,272.88s-.39,15.88-6.05,19.6-20.67-20.62-20.67-20.62l-.9-12.37,6.3-2.18,2.55,9.37-2.25,4.58s8.9,12.15,10.07,10.8,2-11.92,2-11.92Z" style="fill:#ff8b7b"></path><path d="M275.71,254.61c-5.11,3.33-4.44,11.1-6,20.31L282,276.51S284.82,248.68,275.71,254.61Z" style="fill:#407BFF"></path><path d="M274.9,259.11s-3.79,7.35,0,21.07a50.65,50.65,0,0,1,2,10.2c2.46-3.69,3.43-10.08,3.81-14l1.23.16s1.05-10.19-.14-16.92l-3.64-2.15Z" style="opacity:0.1"></path><polygon points="236.44 342.27 241.41 396.6 248.09 397.38 251.53 343.2 236.44 342.27" style="fill:#ff8b7b"></polygon><polygon points="236.44 342.27 241.41 396.6 248.09 397.38 251.53 343.2 236.44 342.27" style="opacity:0.1"></polygon><path d="M241.38,395.81l6.42-2.08a.64.64,0,0,1,.74.27l3.31,5.6a1,1,0,0,1-.36,1.43.72.72,0,0,1-.2.09c-2.68.83-5.11,1.46-8.43,2.55-3.93,1.29-2.78,1.43-7.37,3-2.77.95-4.31-2-3.19-2.59,5.18-2.44,6.2-4.6,7.65-7.21A2.46,2.46,0,0,1,241.38,395.81Z" style="fill:#263238"></path><path d="M253.73,346.44l-7.15,59.07,5.26,1.35A298.41,298.41,0,0,0,268.4,352Z" style="fill:#ff8b7b"></path><path d="M246.55,404.52l6.46,2a.64.64,0,0,1,.45.65L253,413.6a1,1,0,0,1-1.11,1,.83.83,0,0,1-.22,0c-2.68-.86-5-1.72-8.38-2.72-4-1.18-3.1-.41-7.77-1.74-2.81-.8-2.37-4.14-1.14-3.94,5.65.95,7.71-.25,10.39-1.57A2.57,2.57,0,0,1,246.55,404.52Z" style="fill:#263238"></path><path d="M317.32,301.54a14.82,14.82,0,0,0,1.23,4.19c4.46,10.37,11,36-45.44,30.43l-3.58,19.17-34.43-10.1s-1.38-26.63,4.48-31.78c7.22-6.34,45.44-6.09,45.44-6.09l-.2-4.59Z" style="fill:#407BFF"></path><path d="M253.49,319.33c-6.82,4.9-7.8,18.12-7.28,29.16l5.25,1.54c-.09-4.78,0-16.93,3-23,3.81-7.72,14.69-15.39,28.55-17.11C283,309.87,266,310.33,253.49,319.33Z" style="opacity:0.1"></path><path d="M296.08,303.77c5.85.22,24.23,1.82,23.22-3a161.19,161.19,0,0,1-3.4-22.28c-.95-13.4-.13-26.8-4.52-31.21-4.58-4.59-32.17,1.37-35.67,8.2-4.1,8,0,17,3.28,29.34,1.95,7.38,3.23,14.25,4.45,18C284.42,305.88,292.92,303.66,296.08,303.77Z" style="fill:#263238"></path><path d="M318.55,305.73a14.82,14.82,0,0,1-1.23-4.19l-32.5,1.23.19,4.37c1.7.46,4.6.79,9.16,0,7.59-1.37,16.37,2.25,24.78-.43Z" style="opacity:0.1"></path><path d="M298,296.35s13.77-2.08,19.51-4.8c-.63-3.77-1.26-8.31-1.59-13-.73-10.21-.43-20.42-2.19-26.65l-9.54,1.91s-.75,6.68,8.7,29.18L310,289.71Z" style="opacity:0.6000000000000001"></path><path d="M307.74,334.31c-21.33,1.1-33.68-4.36-33.68-4.36l-.95,6.21C289.36,337.75,300.38,336.77,307.74,334.31Z" style="opacity:0.1"></path><path d="M309.47,266.23s5.28,12.16,4.38,13.95-16.42,12.15-16.42,12.15-9.25-6.3-11.71-3.6a42.75,42.75,0,0,0-4.38,5.85l2,.9,5.05-1.59s6.7,4.23,9.62,2.46c0,0,24-8.3,24.6-14.59s-5.08-20-5.08-20Z" style="fill:#ff8b7b"></path><path d="M308,246c-2.53.11-9.82,3.18,1.76,23l10.47-5.06S315,245.65,308,246Z" style="fill:#407BFF"></path><path d="M285.59,235.71c1.5,4.42,4.06,10.45,8.37,11.51,0,0,2.18,4.38-6.56,15.21-7.39-3.48-5.83-11.22-5.83-11.22,1.56-1,2.32-2.3.13-4.64Z" style="fill:#ff8b7b"></path><path d="M283.88,240.47l-2.18,6.1a4.52,4.52,0,0,1,1.34,2.31c4.24-1.53,4-9.3,4-9.3Z" style="opacity:0.1"></path><path d="M286.87,225.91c2,7.54,2.94,10.68.44,15.69-3.76,7.54-13.46,8.28-17.63,1.48-3.74-6.13-6.32-17.48,0-22.73a10.61,10.61,0,0,1,17.2,5.56Z" style="fill:#ff8b7b"></path><path d="M275.18,233c.25.59.14,1.19-.24,1.36s-.89-.19-1.14-.77-.13-1.19.24-1.35S274.92,232.5,275.18,233Z" style="fill:#263238"></path><path d="M268.61,235.85c.24.59.13,1.19-.24,1.35s-.9-.18-1.15-.76-.13-1.19.25-1.35S268.36,235.27,268.61,235.85Z" style="fill:#263238"></path><path d="M267.65,235.05l-1.57.19S267.26,236,267.65,235.05Z" style="fill:#263238"></path><path d="M271.09,236a17,17,0,0,1-.51,4.61,2.79,2.79,0,0,0,2.25-.49Z" style="fill:#ff5652"></path><path d="M277,241.09a5,5,0,0,1-.83.43.18.18,0,0,1-.24-.09h0a.18.18,0,0,1,.11-.24,5,5,0,0,0,3-3.4.19.19,0,0,1,.22-.15.18.18,0,0,1,.15.21A5.18,5.18,0,0,1,277,241.09Z" style="fill:#263238"></path><path d="M277.27,230.6a.38.38,0,0,1-.44,0,4.37,4.37,0,0,0-3.47-.56.38.38,0,0,1-.46-.26.36.36,0,0,1,.25-.45h0a5.05,5.05,0,0,1,4.15.72.36.36,0,0,1,0,.51h0A.18.18,0,0,1,277.27,230.6Z" style="fill:#263238"></path><path d="M265.34,233.65a.37.37,0,0,1-.38,0,.36.36,0,0,1-.15-.5,3.61,3.61,0,0,1,2.76-2,.35.35,0,0,1,.4.31v0a.37.37,0,0,1-.33.4h0a3,3,0,0,0-2.14,1.63A.41.41,0,0,1,265.34,233.65Z" style="fill:#263238"></path><path d="M274.26,232.3l-1.57.18S273.84,233.24,274.26,232.3Z" style="fill:#263238"></path><path d="M290.74,230.94a5.6,5.6,0,0,1-1.72,3.9c-1.43,1.34-3,.28-3.42-1.55-.32-1.65,0-4.33,1.82-5a2.52,2.52,0,0,1,3.32,2.66Z" style="fill:#ff8b7b"></path><path d="M269.07,222.28a5.5,5.5,0,0,0,4.6,5.18c4.55.9,4.53,5.76,7.76,5.88s2.25,3.79,4.81,3.12,1.18-4.38,2.56-5.8c1.95-2-1.81-10.7-6.38-12.5S268.17,216.43,269.07,222.28Z" style="fill:#263238"></path><path d="M269.68,221.31s-3.59,3.12-2.82,6.84-1.91,4.33-1,7.89,3.55,4,3.83,7,3.16,3.73,2,5.38-3.23-2.1-3.38-5-3.68-3.06-4.13-6.89,1.58-5.63,1-9-1-8.18,5.41-7.88S269.68,221.31,269.68,221.31Z" style="fill:#263238"></path><path d="M269.47,218.74s-4.11,7.33,0,10.31S267.71,225.28,269.47,218.74Z" style="fill:#263238"></path><path d="M268.28,219.54s-7.71.69-7.91,6.47S261.89,221.77,268.28,219.54Z" style="fill:#263238"></path><path d="M257,259.77a4.48,4.48,0,0,0,4.33,4.63h.23c.43,2,2.2,2.19,4.31,2.19h.91c2.44,0,4.41-.69,4.41-3.13v-7.76a1.26,1.26,0,0,0-1.25-1.26h-7.23a1.26,1.26,0,0,0-1.25,1.26v.5h-.13C258.68,256.18,257,257.5,257,259.77Zm1.6.18c0-1.48,1.07-2.34,2.82-2.34h0V263h0A2.91,2.91,0,0,1,258.63,260Z" style="fill:#407BFF"></path><path d="M257,259.77a4.48,4.48,0,0,0,4.33,4.63h.23c.43,2,2.2,2.19,4.31,2.19h.91c2.44,0,4.41-.69,4.41-3.13v-7.76a1.26,1.26,0,0,0-1.25-1.26h-7.23a1.26,1.26,0,0,0-1.25,1.26v.5h-.13C258.68,256.18,257,257.5,257,259.77Zm1.6.18c0-1.48,1.07-2.34,2.82-2.34h0V263h0A2.91,2.91,0,0,1,258.63,260Z" style="opacity:0.2"></path><path d="M261.45,263h0v.48a4.83,4.83,0,0,0,.1.94h-.23a4,4,0,0,1-1.1-.15v-1.54A2.85,2.85,0,0,0,261.45,263Z" style="opacity:0.1"></path><path d="M261.36,256.18h.13v1.42h0a4.34,4.34,0,0,0-1.19.16v-1.5A6.45,6.45,0,0,1,261.36,256.18Z" style="opacity:0.1"></path><path d="M261.45,263h0v.48a4.83,4.83,0,0,0,.1.94h-.23a4,4,0,0,1-1.1-.15v-1.54A2.85,2.85,0,0,0,261.45,263Z" style="opacity:0.1"></path><path d="M261.36,256.18h.13v1.42h0a4.34,4.34,0,0,0-1.19.16v-1.5A6.45,6.45,0,0,1,261.36,256.18Z" style="opacity:0.1"></path><polygon points="254.23 271.86 253.33 259.49 259.63 257.31 262.18 266.69 259.93 271.26 254.23 271.86" style="fill:#ff8b7b"></polygon></g><g id="freepik--Desk--inject-195"><path d="M200.2,273.89s-5.71,6.51-7.57-1.09S189,258.58,189,258.58,219.88,267.46,200.2,273.89Z" style="fill:#407BFF"></path><path d="M200.2,273.89s-5.71,6.51-7.57-1.09S189,258.58,189,258.58,219.88,267.46,200.2,273.89Z" style="opacity:0.30000000000000004"></path><path d="M201,283.72s2-15.29-6.39-20.36c0,0,7.21,6.72,5,20.17Z" style="fill:#407BFF"></path><path d="M201,283.72s2-15.29-6.39-20.36c0,0,7.21,6.72,5,20.17Z" style="fill:#fff;opacity:0.5"></path><path d="M204.53,274.67s-6.6-6.41.94-10S221.11,268,221.11,268,205.05,285.92,204.53,274.67Z" style="fill:#407BFF"></path><path d="M201.87,283S202,268.49,213,268c0,0-9.23,1.92-10.13,15Z" style="fill:#407BFF"></path><path d="M201.87,283S202,268.49,213,268c0,0-9.23,1.92-10.13,15Z" style="fill:#fff;opacity:0.5"></path><path d="M195.89,276.6s4.87-6-1.66-7.44-12.16,7.44-12.16,7.44S198.45,283.49,195.89,276.6Z" style="fill:#407BFF"></path><path d="M195.89,276.6s4.87-6-1.66-7.44-12.16,7.44-12.16,7.44S198.45,283.49,195.89,276.6Z" style="fill:#fff;opacity:0.2"></path><path d="M199.28,283s-2.7-15.64-13.61-8.44c0,0,9.45-4.61,12.26,8.44Z" style="fill:#407BFF"></path><path d="M199.28,283s-2.7-15.64-13.61-8.44c0,0,9.45-4.61,12.26,8.44Z" style="fill:#fff;opacity:0.5"></path><polygon points="210.08 281.96 191.65 281.96 192.11 285.7 193.31 285.7 194.8 297.94 206.93 297.94 208.43 285.7 209.62 285.7 210.08 281.96" style="fill:#263238"></polygon><polygon points="208.11 288.32 208.41 285.86 193.33 285.86 193.63 288.32 208.11 288.32" style="opacity:0.4"></polygon><polygon points="330.93 306.85 327.9 306.85 285.58 306.85 282.55 306.85 272.65 416.1 275.68 416.1 276.84 416.1 279.87 416.1 291.73 312.7 321.75 312.7 333.61 416.1 336.64 416.1 337.8 416.1 340.83 416.1 330.93 306.85" style="fill:#263238"></polygon><polygon points="330.93 306.85 327.9 306.85 285.58 306.85 282.55 306.85 272.65 416.1 275.68 416.1 276.84 416.1 279.87 416.1 291.73 312.7 321.75 312.7 333.61 416.1 336.64 416.1 337.8 416.1 340.83 416.1 330.93 306.85" style="fill:#fff;opacity:0.2"></polygon><polygon points="291.73 312.7 324.77 312.7 336.64 416.1 340.83 416.1 330.93 306.85 285.58 306.85 275.68 416.1 279.87 416.1 291.73 312.7" style="fill:#fff;opacity:0.1"></polygon><polygon points="216.38 306.85 213.35 306.85 171.03 306.85 168 306.85 158.1 416.1 161.13 416.1 162.29 416.1 165.32 416.1 177.18 312.7 207.2 312.7 219.06 416.1 222.09 416.1 223.25 416.1 226.28 416.1 216.38 306.85" style="fill:#263238"></polygon><polygon points="216.38 306.85 213.35 306.85 171.03 306.85 168 306.85 158.1 416.1 161.13 416.1 162.29 416.1 165.32 416.1 177.18 312.7 207.2 312.7 219.06 416.1 222.09 416.1 223.25 416.1 226.28 416.1 216.38 306.85" style="fill:#fff;opacity:0.2"></polygon><polygon points="177.18 312.7 210.22 312.7 222.09 416.1 226.28 416.1 216.38 306.85 171.03 306.85 161.13 416.1 165.32 416.1 177.18 312.7" style="fill:#fff;opacity:0.1"></polygon><rect x="154.5" y="298.31" width="189.36" height="4.45" style="fill:#407BFF"></rect><rect x="154.5" y="298.31" width="189.36" height="4.45" style="fill:#fff;opacity:0.5"></rect><rect x="274.77" y="298.31" width="69.09" height="4.45" style="opacity:0.2"></rect><rect x="158.1" y="302.52" width="182.16" height="4.45" style="fill:#407BFF"></rect><rect x="158.1" y="302.52" width="182.16" height="4.45" style="fill:#fff;opacity:0.2"></rect><rect x="274.77" y="302.52" width="65.49" height="4.45" style="opacity:0.2"></rect><path d="M288.31,295.51H230.89a1.4,1.4,0,0,0,0,2.8h57.42a1.4,1.4,0,0,0,0-2.8Z" style="fill:#1a2e35"></path><path d="M288.31,295.51H230.89a1.4,1.4,0,0,0,0,2.8h57.42a1.4,1.4,0,0,0,0-2.8Z" style="fill:#fff;opacity:0.30000000000000004"></path><path d="M231.65,297.45h23.78a.66.66,0,0,0,.62-.88l-9.58-27.37a1.88,1.88,0,0,0-1.78-1.26H220.92a.66.66,0,0,0-.63.88l9.59,27.37A1.86,1.86,0,0,0,231.65,297.45Z" style="fill:#1a2e35"></path><path d="M231.65,297.45h23.78a.66.66,0,0,0,.62-.88l-9.58-27.37a1.88,1.88,0,0,0-1.78-1.26H220.92a.66.66,0,0,0-.63.88l9.59,27.37A1.86,1.86,0,0,0,231.65,297.45Z" style="fill:#fff;opacity:0.5"></path><path d="M230.81,297.45h23.77a.66.66,0,0,0,.63-.88l-9.59-27.37a1.86,1.86,0,0,0-1.77-1.26H220.07a.66.66,0,0,0-.62.88L229,296.19A1.88,1.88,0,0,0,230.81,297.45Z" style="fill:#1a2e35"></path><path d="M230.81,297.45h23.77a.66.66,0,0,0,.63-.88l-9.59-27.37a1.86,1.86,0,0,0-1.77-1.26H220.07a.66.66,0,0,0-.62.88L229,296.19A1.88,1.88,0,0,0,230.81,297.45Z" style="fill:#fff;opacity:0.7000000000000001"></path><path d="M238.92,282.69c.31,1.3-.16,2.35-1,2.35s-1.84-1.05-2.15-2.35.17-2.34,1.05-2.34S238.62,281.4,238.92,282.69Z" style="fill:#fff"></path><path d="M257.67,298.31a1.4,1.4,0,0,1,0-2.8h30.64a1.4,1.4,0,0,1,0,2.8Z" style="fill:#fff;opacity:0.2"></path></g></svg>