<?xml version="1.0" encoding="UTF-8"?><svg id="Layer_1" xmlns="http://www.w3.org/2000/svg" xmlns:xlink="http://www.w3.org/1999/xlink" viewBox="0 0 721.5 100"><defs><style>.cls-1{fill:#fff;}.cls-2{fill:url(#linear-gradient);}</style><linearGradient id="linear-gradient" x1="0" y1="50" x2="407" y2="50" gradientTransform="matrix(1, 0, 0, 1, 0, 0)" gradientUnits="userSpaceOnUse"><stop offset="0" stop-color="#29abe2"/><stop offset="1" stop-color="#00a99d"/></linearGradient></defs><rect class="cls-2" width="407" height="100" rx="10" ry="10"/><g><path class="cls-1" d="M73.18,65.79c-2.26-3.26-3.38-7.7-3.38-13.32,0-6.82,1.73-12.01,5.18-15.59,3.46-3.58,8.42-5.36,14.9-5.36,3.65,0,7.92,.58,12.82,1.73v36.36h-9.65l.22-5.9h-.29c-1.25,2.26-2.77,3.98-4.57,5.18-1.8,1.2-3.83,1.8-6.08,1.8-3.84,0-6.89-1.63-9.14-4.9Zm15.7-6.34c1.44-1.58,2.78-3.7,4.03-6.34v-12.1c-1.54-.43-3.07-.65-4.61-.65-2.88,0-5.05,.98-6.52,2.95-1.46,1.97-2.2,4.87-2.2,8.71,0,3.02,.43,5.41,1.3,7.16,.86,1.75,2.06,2.63,3.6,2.63s2.95-.79,4.39-2.38Z"/><path class="cls-1" d="M131.68,68.06c-1.9-1.75-2.84-4.24-2.84-7.45v-19.37h-5.76v-8.71h5.76v-7.92c3.41-.58,6.77-1.01,10.08-1.3v9.22h9.36v8.71h-9.36v17.5c0,1.01,.3,1.78,.9,2.3,.6,.53,1.45,.79,2.56,.79,1.34,0,2.88-.31,4.61-.94l2.23,7.63c-3.07,1.44-6.24,2.16-9.5,2.16-3.46,0-6.13-.88-8.03-2.63Z"/><path class="cls-1" d="M170.81,32.53h9.94v5.76c2.93-4.51,6.89-6.77,11.88-6.77,2.83,0,5.24,.66,7.24,1.98,1.99,1.32,3.44,3.2,4.36,5.65,1.68-2.64,3.56-4.57,5.65-5.8,2.09-1.22,4.48-1.84,7.16-1.84,3.98,0,7.09,1.19,9.32,3.56s3.35,5.68,3.35,9.9v24.62h-10.15v-23.04c0-1.92-.47-3.42-1.4-4.5s-2.2-1.62-3.78-1.62c-1.97,0-3.79,.82-5.47,2.45-1.68,1.63-2.93,3.72-3.74,6.26v20.45h-10.15v-23.04c0-1.87-.48-3.36-1.44-4.46-.96-1.1-2.23-1.66-3.82-1.66-1.78,0-3.44,.66-5,1.98-1.56,1.32-2.82,3.18-3.78,5.58v21.6h-10.15V32.53Z"/><path class="cls-1" d="M260.34,68.24c-2.86-1.63-5.08-3.92-6.66-6.88-1.58-2.95-2.38-6.37-2.38-10.26s.78-7.31,2.34-10.26c1.56-2.95,3.77-5.24,6.62-6.88,2.85-1.63,6.16-2.45,9.9-2.45s7.04,.8,9.9,2.41c2.85,1.61,5.06,3.88,6.62,6.8,1.56,2.93,2.34,6.31,2.34,10.15s-.78,7.33-2.34,10.33c-1.56,3-3.77,5.33-6.62,6.98-2.86,1.66-6.13,2.48-9.83,2.48s-7.04-.82-9.9-2.45Zm16.06-9.32c1.56-1.99,2.34-4.62,2.34-7.88s-.78-5.87-2.34-7.81c-1.56-1.94-3.64-2.92-6.23-2.92s-4.67,.97-6.23,2.92c-1.56,1.94-2.34,4.55-2.34,7.81s.78,5.89,2.34,7.88c1.56,1.99,3.64,2.99,6.23,2.99s4.67-1,6.23-2.99Z"/><path class="cls-1" d="M314.92,69.97c-2.18-.48-4.04-1.13-5.58-1.94l.94-8.64c1.63,1.01,3.43,1.82,5.4,2.45,1.97,.62,3.82,.94,5.54,.94,1.63,0,3-.3,4.1-.9,1.1-.6,1.66-1.48,1.66-2.63,0-.91-.38-1.62-1.15-2.12-.77-.5-2.23-1.14-4.39-1.91l-1.94-.72c-2.06-.77-3.74-1.5-5.04-2.2-1.3-.7-2.47-1.76-3.53-3.2-1.06-1.44-1.58-3.34-1.58-5.69,0-3.74,1.4-6.66,4.21-8.75,2.81-2.09,6.47-3.13,10.98-3.13,3.55,0,7.3,.7,11.23,2.09l-1.37,8.57c-1.39-.82-2.96-1.48-4.72-1.98-1.75-.5-3.4-.76-4.93-.76s-2.84,.26-3.78,.79c-.94,.53-1.4,1.3-1.4,2.3s.38,1.68,1.15,2.16c.77,.48,2.06,1.03,3.89,1.66,1.44,.53,2.28,.84,2.52,.94,2.02,.82,3.7,1.61,5.04,2.38,1.34,.77,2.52,1.91,3.53,3.42,1.01,1.51,1.51,3.44,1.51,5.8,0,3.94-1.42,6.89-4.25,8.86-2.83,1.97-6.58,2.95-11.23,2.95-2.35,0-4.62-.24-6.8-.72Z"/></g><g><path class="cls-1" d="M438.26,32.68h10.37l6.62,24.55,7.13-24.34,11.45-.94,7.7,25.99,6.77-25.27h9.65l-11.3,37.08h-11.09l-7.63-26.93-7.99,26.93h-10.87l-10.8-37.08Z"/><path class="cls-1" d="M505.9,65.65c-3.43-3.46-5.15-8.26-5.15-14.4,0-3.98,.74-7.45,2.23-10.4,1.49-2.95,3.59-5.22,6.3-6.8,2.71-1.58,5.89-2.38,9.54-2.38,5.38,0,9.5,1.73,12.38,5.18,2.88,3.46,4.32,8.45,4.32,14.98,0,1.11-.03,1.92-.07,2.45h-24.48c.48,2.54,1.58,4.48,3.31,5.79,1.73,1.32,4.06,1.98,6.98,1.98,1.77,0,3.62-.23,5.54-.68,1.92-.46,3.6-1.07,5.04-1.84l1.66,8.14c-1.92,1.01-4.04,1.79-6.37,2.34-2.33,.55-4.69,.83-7.09,.83-6,0-10.72-1.73-14.15-5.18Zm19.91-19.01c-.14-2.06-.86-3.71-2.16-4.93s-3.02-1.84-5.18-1.84-3.76,.6-5.08,1.8c-1.32,1.2-2.15,2.86-2.48,4.97h14.9Z"/><path class="cls-1" d="M545.03,65.94c-2.26-3.26-3.38-7.7-3.38-13.32,0-6.82,1.73-12.01,5.18-15.59,3.46-3.58,8.42-5.36,14.9-5.36,3.65,0,7.92,.58,12.82,1.73v36.36h-9.65l.22-5.9h-.29c-1.25,2.26-2.77,3.98-4.57,5.18s-3.83,1.8-6.08,1.8c-3.84,0-6.89-1.63-9.14-4.9Zm15.7-6.33c1.44-1.58,2.78-3.7,4.03-6.34v-12.1c-1.54-.43-3.07-.65-4.61-.65-2.88,0-5.05,.98-6.52,2.95-1.46,1.97-2.2,4.87-2.2,8.71,0,3.02,.43,5.41,1.3,7.16s2.06,2.63,3.6,2.63,2.95-.79,4.39-2.38Z"/><path class="cls-1" d="M589.85,68.21c-1.9-1.75-2.84-4.24-2.84-7.45v-19.37h-5.76v-8.71h5.76v-7.92c3.41-.58,6.77-1.01,10.08-1.3v9.22h9.36v8.71h-9.36v17.5c0,1.01,.3,1.78,.9,2.3,.6,.53,1.45,.79,2.56,.79,1.34,0,2.88-.31,4.61-.94l2.23,7.63c-3.07,1.44-6.24,2.16-9.5,2.16-3.46,0-6.13-.88-8.03-2.63Z"/><path class="cls-1" d="M614.59,17.2h10.15v20.88c1.49-2.21,3.19-3.83,5.11-4.86,1.92-1.03,4.13-1.55,6.62-1.55,3.98,0,7.1,1.19,9.36,3.56,2.26,2.38,3.38,5.68,3.38,9.9v24.62h-10.15v-23.04c0-1.92-.48-3.42-1.44-4.5-.96-1.08-2.26-1.62-3.89-1.62-1.78,0-3.47,.61-5.08,1.84-1.61,1.22-2.92,2.84-3.92,4.86v22.46h-10.15V17.2Z"/><path class="cls-1" d="M661.92,65.65c-3.43-3.46-5.15-8.26-5.15-14.4,0-3.98,.74-7.45,2.23-10.4,1.49-2.95,3.59-5.22,6.3-6.8,2.71-1.58,5.89-2.38,9.54-2.38,5.38,0,9.5,1.73,12.38,5.18,2.88,3.46,4.32,8.45,4.32,14.98,0,1.11-.03,1.92-.07,2.45h-24.48c.48,2.54,1.58,4.48,3.31,5.79,1.73,1.32,4.06,1.98,6.98,1.98,1.77,0,3.62-.23,5.54-.68,1.92-.46,3.6-1.07,5.04-1.84l1.66,8.14c-1.92,1.01-4.04,1.79-6.37,2.34-2.33,.55-4.69,.83-7.09,.83-6,0-10.72-1.73-14.15-5.18Zm19.91-19.01c-.14-2.06-.86-3.71-2.16-4.93s-3.02-1.84-5.18-1.84-3.76,.6-5.08,1.8c-1.32,1.2-2.15,2.86-2.48,4.97h14.9Z"/><path class="cls-1" d="M699.33,32.68h10.15v6.05h.58c1.39-2.45,2.77-4.25,4.14-5.4,1.37-1.15,3.08-1.73,5.15-1.73,.86,0,1.58,.1,2.16,.29l-1.08,10.94c-1.25-.33-2.26-.5-3.02-.5-1.1,0-2.08,.22-2.92,.65-.84,.43-1.58,1.01-2.23,1.73-.65,.72-1.57,1.82-2.77,3.31v21.74h-10.15V32.68Z"/></g></svg>