<svg xmlns="http://www.w3.org/2000/svg" viewBox="0 0 500 500"><g id="freepik--background-simple--inject-277"><path d="M194.25,157.57c21.7-41.45,33.54-80.86,85.65-88.11C325.16,63.16,378,89.77,408,122.53c58.33,63.56,9.95,206.63-81.43,193.28-61.78-9-83.73-25.11-142.79-4.27-39,13.75-90.51,14.39-120.68-19.87-30.89-35.08-4.36-58.13,31.06-72C134.39,204,169.84,204.16,194.25,157.57Z" style="fill:#407BFF"></path><path d="M194.25,157.57c21.7-41.45,33.54-80.86,85.65-88.11C325.16,63.16,378,89.77,408,122.53c58.33,63.56,9.95,206.63-81.43,193.28-61.78-9-83.73-25.11-142.79-4.27-39,13.75-90.51,14.39-120.68-19.87-30.89-35.08-4.36-58.13,31.06-72C134.39,204,169.84,204.16,194.25,157.57Z" style="fill:#fff;opacity:0.9"></path></g><g id="freepik--Shadow--inject-277"><ellipse cx="250" cy="416.24" rx="193.89" ry="11.32" style="fill:#f5f5f5"></ellipse></g><g id="freepik--Shield--inject-277"><path d="M245.46,142.81c1.36,17,21,39.08,27.28,45.76a2.64,2.64,0,0,0,3.86,0c6.3-6.68,25.92-28.77,27.28-45.76a2.69,2.69,0,0,0-1.39-2.6l-26.56-14.33a2.62,2.62,0,0,0-2.52,0l-26.56,14.33A2.71,2.71,0,0,0,245.46,142.81Z" style="fill:#407BFF"></path><path d="M272.7,182.13c-8-9-19.6-24.13-22.37-36.17a2.69,2.69,0,0,1,1.28-2.92l21.74-12.5a2.67,2.67,0,0,1,2.65,0L297.74,143A2.68,2.68,0,0,1,299,146c-2.76,12.06-14.32,27.13-22.36,36.17A2.63,2.63,0,0,1,272.7,182.13Z" style="fill:#407BFF;opacity:0.30000000000000004"></path><path d="M272.7,182.13c-8-9-19.6-24.13-22.37-36.17a2.69,2.69,0,0,1,1.28-2.92l21.74-12.5a2.67,2.67,0,0,1,2.65,0L297.74,143A2.68,2.68,0,0,1,299,146c-2.76,12.06-14.32,27.13-22.36,36.17A2.63,2.63,0,0,1,272.7,182.13Z" style="fill:#fff;opacity:0.30000000000000004"></path><path d="M271.71,163.88a1.49,1.49,0,0,1-1.06-.44L263.24,156a1.5,1.5,0,0,1,2.12-2.12l6.35,6.34,15-14.95a1.51,1.51,0,0,1,2.12,0,1.49,1.49,0,0,1,0,2.12l-16,16A1.53,1.53,0,0,1,271.71,163.88Z" style="fill:#fff"></path></g><g id="freepik--Vault--inject-277"><rect x="184" y="204.33" width="162.67" height="205.9" rx="12" style="fill:#263238"></rect><rect x="193.34" y="204.33" width="162.67" height="205.9" rx="12" style="fill:#407BFF"></rect><rect x="207.51" y="410.24" width="15" height="3.67" rx="0.75" style="fill:#263238"></rect><rect x="326.83" y="410.24" width="15" height="3.67" rx="0.75" style="fill:#263238"></rect><rect x="193.34" y="204.33" width="162.67" height="205.9" rx="12" style="opacity:0.2"></rect><path d="M327.67,386.49h-106a4.59,4.59,0,0,1-4.58-4.58V232.67a4.59,4.59,0,0,1,4.58-4.59h106a4.59,4.59,0,0,1,4.58,4.59V381.91A4.59,4.59,0,0,1,327.67,386.49Zm-106-157.91a4.09,4.09,0,0,0-4.08,4.09V381.91a4.08,4.08,0,0,0,4.08,4.08h106a4.08,4.08,0,0,0,4.08-4.08V232.67a4.09,4.09,0,0,0-4.08-4.09Z" style="fill:#e6e6e6;opacity:0.4;mix-blend-mode:color-dodge"></path><rect x="197.72" y="251.95" width="153.91" height="110.67" rx="2.33" transform="translate(581.96 32.61) rotate(90)" style="fill:#407BFF"></rect><rect x="197.72" y="251.95" width="153.91" height="110.67" rx="2.33" transform="translate(581.96 32.61) rotate(90)" style="fill:#fff;opacity:0.1"></rect><rect x="358.5" y="246.78" width="1" height="8.44" style="fill:#407BFF"></rect><rect x="358.5" y="216.33" width="1" height="21.56" style="fill:#407BFF"></rect><circle cx="274.67" cy="310.2" r="34.1" style="opacity:0.1"></circle><circle cx="274.67" cy="251.23" r="8.33" style="fill:#407BFF"></circle><circle cx="274.62" cy="251.21" r="8.33" style="fill:#fff;opacity:0.6000000000000001"></circle><path d="M274.67,257.81a6.58,6.58,0,1,1,6.58-6.58A6.59,6.59,0,0,1,274.67,257.81Zm0-12.66a6.08,6.08,0,1,0,6.08,6.08A6.09,6.09,0,0,0,274.67,245.15Z" style="fill:#407BFF"></path><rect x="214.01" y="249.93" width="6.67" height="23.26" rx="1.48" style="fill:#407BFF"></rect><rect x="214.01" y="249.93" width="6.67" height="23.26" rx="1.48" style="fill:#fff;opacity:0.6000000000000001"></rect><rect x="214.01" y="341.38" width="6.67" height="23.26" rx="1.48" style="fill:#407BFF"></rect><rect x="214.01" y="341.38" width="6.67" height="23.26" rx="1.48" style="fill:#fff;opacity:0.6000000000000001"></rect><circle cx="274.67" cy="307.29" r="34.1" style="fill:#407BFF"></circle><circle cx="274.67" cy="307.29" r="34.1" style="fill:#fff;opacity:0.6000000000000001"></circle><rect x="273.67" y="282.42" width="2" height="49.74" transform="translate(-136.83 284.22) rotate(-45)" style="fill:#407BFF"></rect><rect x="249.8" y="306.29" width="49.74" height="2" transform="translate(-136.83 284.22) rotate(-45)" style="fill:#407BFF"></rect><rect x="249.7" y="306.17" width="49.74" height="2" transform="translate(-136.79 284.12) rotate(-45)" style="opacity:0.2"></rect><rect x="273.57" y="282.31" width="2" height="49.74" transform="translate(-136.79 284.12) rotate(-45)" style="opacity:0.2"></rect><path d="M274.57,333.06a25.89,25.89,0,1,1,25.88-25.89A25.91,25.91,0,0,1,274.57,333.06Zm0-49.78a23.89,23.89,0,1,0,23.88,23.89A23.91,23.91,0,0,0,274.57,283.28Z" style="fill:#407BFF"></path><circle cx="274.57" cy="307.17" r="10.83" transform="translate(-136.79 284.12) rotate(-45)" style="fill:#407BFF"></circle><path d="M274.57,333.06a25.89,25.89,0,1,1,25.88-25.89A25.91,25.91,0,0,1,274.57,333.06Zm0-49.78a23.89,23.89,0,1,0,23.88,23.89A23.91,23.91,0,0,0,274.57,283.28Z" style="opacity:0.2"></path><circle cx="274.57" cy="307.17" r="10.83" transform="translate(-136.79 284.12) rotate(-45)" style="opacity:0.2"></circle></g><g id="freepik--Character--inject-277"><path d="M191,162.76c2.41,5.59,4.9,11.25,7.42,16.82s5.1,11.13,7.86,16.44c.71,1.3,1.39,2.65,2.13,3.88l.54.94.28.47a.46.46,0,0,0-.1-.1c-.12-.07,0,.07.24.24a9.39,9.39,0,0,0,2.94,1,36.71,36.71,0,0,0,4,.52c2.83.19,5.82.19,8.82.1l4.54-.19,4.52-.3,1.17,5.44a78.21,78.21,0,0,1-19.08,3.82,35.69,35.69,0,0,1-5.26-.05,18.78,18.78,0,0,1-6-1.42,10.48,10.48,0,0,1-3.49-2.48,9,9,0,0,1-.81-1l-.35-.52-.68-1c-.95-1.38-1.75-2.76-2.61-4.15-3.24-5.55-6.14-11.17-8.86-16.84s-5.25-11.39-7.63-17.26Z" style="fill:#7f3e3b"></path><path d="M177.72,162c-2.27,6.64,11.07,26.17,11.07,26.17l12.78-7.08a149.92,149.92,0,0,0-7.67-17.8C189.39,154.84,180.21,154.71,177.72,162Z" style="fill:#407BFF"></path><path d="M177.72,162c-2.27,6.64,11.07,26.17,11.07,26.17l12.78-7.08a149.92,149.92,0,0,0-7.67-17.8C189.39,154.84,180.21,154.71,177.72,162Z" style="fill:#fff;opacity:0.5"></path><path d="M177.53,162.83c2.86-1.37,6.16-.22,9.62,5.26s6.42,14.63,6.75,17.24l-5.11,2.83S176.47,170.12,177.53,162.83Z" style="fill:#407BFF"></path><path d="M177.53,162.83c2.86-1.37,6.16-.22,9.62,5.26s6.42,14.63,6.75,17.24l-5.11,2.83S176.47,170.12,177.53,162.83Z" style="fill:#fff;opacity:0.4"></path><path d="M186.35,156.92S195.87,179.31,189,221H149.36c-.49-6.09,2.31-35.78-4.56-64.46A101.24,101.24,0,0,1,158,154.86a147.9,147.9,0,0,1,16.85,0A76.45,76.45,0,0,1,186.35,156.92Z" style="fill:#407BFF"></path><path d="M186.35,156.92S195.87,179.31,189,221H149.36c-.49-6.09,2.31-35.78-4.56-64.46A101.24,101.24,0,0,1,158,154.86a147.9,147.9,0,0,1,16.85,0A76.45,76.45,0,0,1,186.35,156.92Z" style="fill:#fff;opacity:0.5"></path><path d="M153.66,163.62c.82,4.72-.27,16-4.32,29.06a190.68,190.68,0,0,0-3.89-33.29v-.06C148.05,159.07,152.87,159.19,153.66,163.62Z" style="fill:#407BFF"></path><path d="M153.66,163.62c.82,4.72-.27,16-4.32,29.06a190.68,190.68,0,0,0-3.89-33.29v-.06C148.05,159.07,152.87,159.19,153.66,163.62Z" style="fill:#fff;opacity:0.4"></path><polygon points="135.31 398.63 141.19 403.89 152.38 392.24 146.5 386.98 135.31 398.63" style="fill:#7f3e3b"></polygon><path d="M142.81,401.78,135.67,397a.66.66,0,0,0-.82,0l-5.46,5.51a1.1,1.1,0,0,0,.26,1.67c4.56,3.51,7.85,6.16,10.45,9.08,3,3.41,4.62,3.9,11.62,3.9,3.24,0,5.07-2.73,3.75-3.15-11.66-3.69-8.54-5.3-11.38-10.71A3.89,3.89,0,0,0,142.81,401.78Z" style="fill:#263238"></path><polygon points="152.37 392.24 146.61 398.25 140.73 392.98 146.49 386.98 152.37 392.24" style="fill:#5e2b2b"></polygon><polygon points="156.41 392.41 163.82 392.41 163.32 401.26 155.91 401.26 156.41 392.41" style="fill:#5e2b2b"></polygon><path d="M189,221s7.81,54.06,10.47,83.48c2.14,23.61-48.91,94-48.91,94l-9.87-9.29s37.28-63.11,34.41-89.39c-2.77-25.45-12.2-78.83-12.2-78.83Z" style="fill:#407BFF"></path><path d="M189,221s7.81,54.06,10.47,83.48c2.14,23.61-48.91,94-48.91,94l-9.87-9.29s37.28-63.11,34.41-89.39c-2.77-25.45-12.2-78.83-12.2-78.83Z" style="opacity:0.5"></path><polygon points="155.44 409.57 162.86 409.57 163.82 392.41 156.41 392.41 155.44 409.57" style="fill:#7f3e3b"></polygon><path d="M163.25,408.72h-8.33a.53.53,0,0,0-.55.5l-.41,6.59a1.31,1.31,0,0,0,1.3,1.32c2.9-.05,4.29-.22,8-.22,2.25,0,11.83.24,14.95.24s3-3.08,1.7-3.36c-5.91-1.25-13.24-3-15.34-4.62A2.09,2.09,0,0,0,163.25,408.72Z" style="fill:#263238"></path><path d="M232.63,202.92l6.81-2.7,1.66,7s-7.77,2.32-9,.08Z" style="fill:#7f3e3b"></path><polygon points="245.21 201.63 247.21 205.46 241.1 207.2 239.44 200.22 245.21 201.63" style="fill:#7f3e3b"></polygon><path d="M176.49,155l-1.62-.17a147.9,147.9,0,0,0-16.85,0l-1,.06.09.27c.08.21,1.94,5.16,12.61,5.16,4.65,0,7.08-.77,7.64-2.44A3.07,3.07,0,0,0,176.49,155Z" style="fill:#e6e6e6"></path><path d="M159,135.88c1.25,5.42,2.66,15.36-1,19,0,0,1.58,4.49,11.66,4.49,11.08,0,5.19-4.49,5.19-4.49-6.1-1.44-6.09-5.93-5.19-10.14Z" style="fill:#7f3e3b"></path><path d="M163.37,139.49l6.31,5.22a17.35,17.35,0,0,0-.42,3c-2.32-.33-5.58-2.87-5.91-5.29A7.88,7.88,0,0,1,163.37,139.49Z" style="fill:#5e2b2b"></path><path d="M174.84,119.75c3.37,2.18,3.85,12.66-1.08,14.16S168.46,115.63,174.84,119.75Z" style="fill:#263238"></path><path d="M156.66,130.2c2.26,7,3.22,11.23,7.78,14.1a9.59,9.59,0,0,0,14.77-8.38c-.09-6.73-3.77-17.09-11.52-18.39A9.71,9.71,0,0,0,156.66,130.2Z" style="fill:#7f3e3b"></path><path d="M148.58,123.61C151,128,157.08,138,160,137s2.93-9-.82-14.07c0,0,29.71,3,30.31-13.88.61-17.27-13.7-.56-26.29,4.27C149.5,118.62,142.89,113.28,148.58,123.61Z" style="fill:#263238"></path><path d="M149.85,117.49a.25.25,0,0,1,0-.49c.45-.1.94-.19,1.47-.29a47.45,47.45,0,0,0,11.56-3.44c3.75-1.68,7.68-4.56,11.16-7.1a74.38,74.38,0,0,1,6.9-4.68.26.26,0,0,1,.34.1.25.25,0,0,1-.1.34,73.45,73.45,0,0,0-6.85,4.65c-3.49,2.55-7.45,5.44-11.25,7.15a47.76,47.76,0,0,1-11.66,3.47c-.53.1-1,.19-1.47.29Z" style="fill:#263238"></path><path d="M155.42,138.75a7.32,7.32,0,0,0,5,2.07c2.48,0,3-2.34,1.67-4.3-1.18-1.76-3.88-3.88-6.06-2.93S153.78,137.14,155.42,138.75Z" style="fill:#7f3e3b"></path><path d="M175.11,299.83c-1.43-13.11-4.63-33.65-7.38-50.47,1.44-2.82,5.48-8.53,5.48-8.53,3.62,12.51,11.49,59.67.26,123.36-11.7,18.86-22.9,34.32-22.9,34.32L149,374.19C159.85,353.85,177.1,318,175.11,299.83Z" style="opacity:0.2"></path><path d="M168.05,129.81c.15.58.58,1,1,.9s.57-.63.42-1.21-.58-1-1-.89S167.9,129.23,168.05,129.81Z" style="fill:#263238"></path><path d="M174.65,128.36c.15.58.58,1,1,.9s.57-.62.42-1.2-.57-1-1-.9S174.5,127.78,174.65,128.36Z" style="fill:#263238"></path><path d="M172.63,129.11a22.57,22.57,0,0,0,4.05,4.35,3.42,3.42,0,0,1-2.66,1.13Z" style="fill:#630f0f"></path><path d="M171.5,136.7a5.08,5.08,0,0,1-3.33-1.2.17.17,0,1,1,.24-.25,5,5,0,0,0,4.24,1,.17.17,0,0,1,.08.34A5.53,5.53,0,0,1,171.5,136.7Z" style="fill:#263238"></path><path d="M165.43,128.14a.35.35,0,0,1-.14,0,.34.34,0,0,1-.18-.46,3.38,3.38,0,0,1,2.44-2,.37.37,0,0,1,.4.3.35.35,0,0,1-.3.4,2.69,2.69,0,0,0-1.9,1.61A.34.34,0,0,1,165.43,128.14Z" style="fill:#263238"></path><path d="M176.88,125.49a.34.34,0,0,1-.27-.13,3,3,0,0,0-2.34-1.12.36.36,0,0,1-.38-.32.36.36,0,0,1,.32-.38,3.68,3.68,0,0,1,2.94,1.37.36.36,0,0,1-.05.5A.35.35,0,0,1,176.88,125.49Z" style="fill:#263238"></path><path d="M149.94,196.68a28.54,28.54,0,0,1-5.7-2.65,6.24,6.24,0,0,1-1.08-.87c.46-2.15,1.06-4.31,1.71-6.48s1.45-4.39,2.28-6.58,1.71-4.37,2.63-6.53c.46-1.08.93-2.16,1.41-3.23l1.44-3.11-10-5.12c-.66,1.25-1.2,2.35-1.74,3.54s-1,2.34-1.54,3.52q-1.48,3.56-2.7,7.21a78,78,0,0,0-3.55,15.3l0,.27,0,.52a7.76,7.76,0,0,0,0,1.08,9.06,9.06,0,0,0,.38,2.14,9.49,9.49,0,0,0,1.88,3.33,14.34,14.34,0,0,0,4.4,3.25,32.46,32.46,0,0,0,8.05,2.58,70.34,70.34,0,0,0,15.39,1.2l.46-5.55A123.23,123.23,0,0,1,149.94,196.68Z" style="fill:#7f3e3b"></path><path d="M165.88,410a9.51,9.51,0,0,1-2-.26.21.21,0,0,1-.13-.13.18.18,0,0,1,.07-.17c.24-.17,2.34-1.6,3.24-1.24a.64.64,0,0,1,.4.48,1,1,0,0,1-.22.93A2,2,0,0,1,165.88,410Zm-1.52-.5c1.33.26,2.32.22,2.67-.12a.66.66,0,0,0,.12-.63.32.32,0,0,0-.19-.24C166.43,408.3,165.11,409,164.36,409.5Z" style="fill:#407BFF"></path><path d="M163.94,409.74a.12.12,0,0,1-.08,0,.16.16,0,0,1-.09-.13c0-.09-.17-2.22.58-2.94a.86.86,0,0,1,.72-.24.66.66,0,0,1,.62.52c.17.81-.93,2.35-1.67,2.79Zm1-3a.51.51,0,0,0-.37.15,3.88,3.88,0,0,0-.49,2.37c.61-.52,1.4-1.7,1.28-2.26,0-.11-.08-.23-.34-.26Z" style="fill:#407BFF"></path><path d="M147.62,405.79a9.23,9.23,0,0,1-3.7-1.43.15.15,0,0,1-.08-.18.18.18,0,0,1,.15-.13c.4,0,3.91-.26,4.57.54a.51.51,0,0,1,.11.49.88.88,0,0,1-.52.62A1.51,1.51,0,0,1,147.62,405.79Zm-3.05-1.44c1.61.89,2.88,1.28,3.45,1a.55.55,0,0,0,.33-.39.2.2,0,0,0,0-.2C147.94,404.36,146,404.29,144.57,404.35Z" style="fill:#407BFF"></path><path d="M144,404.39a.17.17,0,0,1-.14-.08.18.18,0,0,1,0-.16c.06-.12,1.39-2.83,3.1-2,.47.23.51.5.47.69-.17.81-2.39,1.54-3.41,1.57Zm2.31-2.07c-.92,0-1.71,1.17-2,1.71,1.07-.13,2.71-.8,2.81-1.28,0-.1-.08-.21-.3-.32A1.09,1.09,0,0,0,146.31,402.32Z" style="fill:#407BFF"></path><path d="M162.51,200.42l6.09-1.67.83,7.69s-6,1.8-7.49-1.35Z" style="fill:#7f3e3b"></path><path d="M162.39,200.58a8,8,0,0,0,2.11-5.05l1.56.85s.31,3.45-.3,4.44S162.39,200.58,162.39,200.58Z" style="fill:#7f3e3b"></path><polygon points="171.45 199.51 171.08 206.44 169.43 206.44 168.59 198.75 171.45 199.51" style="fill:#7f3e3b"></polygon><polygon points="140.1 388.66 151.17 399.08 154.74 395.25 142.07 383.71 140.1 388.66" style="fill:#407BFF"></polygon><polygon points="140.1 388.66 151.17 399.08 154.74 395.25 142.07 383.71 140.1 388.66" style="opacity:0.1"></polygon><path d="M174.91,221s.7,56.65-.5,77.88c-1.31,23.24-7.91,100.25-7.91,100.25H152.92s.41-75.13-.41-98.14c-.89-25-3.19-80-3.19-80Z" style="fill:#407BFF"></path><path d="M174.91,221s.7,56.65-.5,77.88c-1.31,23.24-7.91,100.25-7.91,100.25H152.92s.41-75.13-.41-98.14c-.89-25-3.19-80-3.19-80Z" style="opacity:0.5"></path><polygon points="152.38 399.13 167.05 399.13 167.86 393.97 151.67 394.78 152.38 399.13" style="fill:#407BFF"></polygon><polygon points="152.38 399.13 167.05 399.13 167.86 393.97 151.67 394.78 152.38 399.13" style="opacity:0.1"></polygon><path d="M144.8,156.54c-7,1-14.17,26.71-14.17,26.71l16.87,6.42s4.24-11,7.14-19.63C157.68,161.05,152.29,155.44,144.8,156.54Z" style="fill:#407BFF"></path><path d="M144.8,156.54c-7,1-14.17,26.71-14.17,26.71l16.87,6.42s4.24-11,7.14-19.63C157.68,161.05,152.29,155.44,144.8,156.54Z" style="fill:#fff;opacity:0.5"></path></g></svg>