<?xml version="1.0" encoding="utf-8"?>
<!-- Generator: Adobe Illustrator 26.3.1, SVG Export Plug-In . SVG Version: 6.00 Build 0)  -->
<svg version="1.1" id="Layer_1" xmlns="http://www.w3.org/2000/svg" xmlns:xlink="http://www.w3.org/1999/xlink" x="0px" y="0px"
	 viewBox="0 0 44 44" style="enable-background:new 0 0 44 44;" xml:space="preserve">
<style type="text/css">
	.st0{fill:none;stroke:#00ABFB;stroke-width:3;stroke-linecap:round;stroke-linejoin:round;}
</style>
<g>
	<path class="st0" d="M38.3,22H23.8c0-1-0.8-1.8-1.8-1.8S20.2,21,20.2,22s0.8,1.8,1.8,1.8v14.5C31,38.3,38.3,31,38.3,22"/>
	<path class="st0" d="M29.3,16.6c-3-4-8.7-4.8-12.7-1.8c-4,3-4.8,8.7-1.8,12.7c0.5,0.7,1.1,1.3,1.8,1.8"/>
	<path class="st0" d="M37.4,16.5C34.4,8,25,3.6,16.5,6.6C8.1,9.6,3.6,19,6.6,27.5c1.7,4.6,5.3,8.3,9.9,9.9"/>
</g>
</svg>
