<svg xmlns="http://www.w3.org/2000/svg" viewBox="0 0 500 500"><g id="freepik--background-simple--inject-155"><path d="M135.48,361.35c19.89,16.51,57.22,26.95,89.21,22.88s63.33-17.54,88.45-35.75a204.09,204.09,0,0,0,57.68-64.65c18.12-32,24.79-68.12,11.74-97.68-12.65-28.64-49-46.87-85.28-58.07s-80.06-12.31-120.82-.17c-15.94,4.75-32,11.9-42.21,22.86C119.92,166.08,120,186,129.12,200.71s21.92,19.93,39.32,29C152.4,243.86,70.17,307.11,135.48,361.35Z" style="fill:#407BFF"></path><g style="opacity:0.9"><path d="M135.48,361.35c19.89,16.51,57.22,26.95,89.21,22.88s63.33-17.54,88.45-35.75a204.09,204.09,0,0,0,57.68-64.65c18.12-32,24.79-68.12,11.74-97.68-12.65-28.64-49-46.87-85.28-58.07s-80.06-12.31-120.82-.17c-15.94,4.75-32,11.9-42.21,22.86C119.92,166.08,120,186,129.12,200.71s21.92,19.93,39.32,29C152.4,243.86,70.17,307.11,135.48,361.35Z" style="fill:#fff"></path></g></g><g id="freepik--Shadow--inject-155"><ellipse id="freepik--path--inject-155" cx="250" cy="415.69" rx="193.89" ry="11.32" style="fill:#f5f5f5"></ellipse></g><g id="freepik--Puddle--inject-155"><ellipse id="freepik--path--inject-155" cx="281.38" cy="414.56" rx="127.05" ry="10.19" style="fill:#407BFF"></ellipse><path d="M408.42,414.56c0,2.54-11.66,4.88-30.93,6.66-6.19.57-13.17,1.09-20.81,1.54l-7.47.41-22.61.9c-14.05.43-29.29.67-45.22.67-70.17,0-127-4.56-127-10.18s56.88-10.19,127-10.19c30.19,0,57.91.84,79.71,2.25q5.27.35,10,.72h0l4.54.39c4,.35,7.65.73,11,1.12C400.4,410.48,408.42,412.44,408.42,414.56Z" style="fill:#fff;opacity:0.5"></path><path d="M357.06,408.59q2.74.63,5.36,1.49c-.25,1.37-1.77,2.59-3.7,3,.46-.17.82.32,1.13.61-4.29,2.63-10.65,2.68-16.4,2.58a52.34,52.34,0,0,0,19.2-1c1-.28,2.16-.66,2.53-1.38s-.72-1.69-1.7-1.33c.13-.78.64-1.2,1.66-1.54s2-1.27,1.21-1.83a2.89,2.89,0,0,0-1.26-.32C362.53,408.59,359.62,408.83,357.06,408.59Z" style="fill:#fff;opacity:0.30000000000000004"></path><path d="M370.62,409.86q2.76.54,5.4,1.32c-.2,1.37-1.68,2.64-3.6,3.09.46-.19.83.29,1.15.57-4.2,2.77-10.55,3-16.3,3.11a52.08,52.08,0,0,0,19.15-1.65c1-.3,2.14-.72,2.49-1.45s-.78-1.67-1.75-1.28c.11-.78.61-1.22,1.61-1.6s2-1.32,1.15-1.86a2.83,2.83,0,0,0-1.27-.28C376.08,409.68,373.19,410,370.62,409.86Z" style="fill:#fff;opacity:0.30000000000000004"></path><path d="M203.08,412.25q-2.79.24-5.49.66c.1,1,1.48,2,3.36,2.46-.44-.16-.85.17-1.19.35,4,2.26,10.29,2.8,16,3.18a70,70,0,0,1-19-2.27c-1-.28-2.08-.65-2.37-1.2s.9-1.18,1.84-.84c-.05-.57-.51-.92-1.49-1.25s-1.85-1.08-1-1.42a3.67,3.67,0,0,1,1.28-.14C197.65,411.81,200.51,412.22,203.08,412.25Z" style="fill:#fff;opacity:0.30000000000000004"></path><path d="M189.47,412.1q-2.81.18-5.52.53c.06,1,1.39,2.06,3.25,2.54-.44-.17-.86.14-1.21.32,3.88,2.35,10.17,3,15.87,3.56A69.31,69.31,0,0,1,183,416.33c-1-.31-2.05-.7-2.31-1.26s.95-1.15,1.87-.79c0-.58-.47-.93-1.43-1.29s-1.8-1.12-.94-1.44a3.79,3.79,0,0,1,1.29-.11C184.05,411.53,186.9,412,189.47,412.1Z" style="fill:#fff;opacity:0.30000000000000004"></path></g><g id="freepik--Rain--inject-155"><path d="M173,300.83c-3.65,2.46-5.63,4.6-4.43,4.79s5.15-1.64,8.8-4.1,5.63-4.59,4.42-4.78S176.64,298.38,173,300.83Z" style="fill:#407BFF"></path><path d="M224.27,293.23c-3.65,2.45-5.63,4.6-4.42,4.79s5.14-1.65,8.79-4.1,5.63-4.6,4.42-4.79S227.92,290.77,224.27,293.23Z" style="fill:#407BFF"></path><path d="M288.64,270c-3.59,2.42-5.54,4.53-4.35,4.72s5.06-1.62,8.66-4,5.54-4.53,4.36-4.72S292.24,267.55,288.64,270Z" style="fill:#407BFF"></path><path d="M204.89,282.33c-1.8,1.21-2.78,2.26-2.18,2.36s2.53-.81,4.33-2,2.77-2.27,2.18-2.36S206.68,281.12,204.89,282.33Z" style="fill:#407BFF"></path><path d="M170.27,274.74c-1.8,1.21-2.78,2.26-2.18,2.36s2.53-.81,4.33-2,2.77-2.27,2.18-2.36S172.06,273.53,170.27,274.74Z" style="fill:#407BFF"></path><path d="M196.32,350.2c-1.79,1.21-2.77,2.27-2.18,2.36s2.54-.81,4.34-2,2.77-2.26,2.17-2.35S198.12,349,196.32,350.2Z" style="fill:#407BFF"></path><path d="M210.31,249.48c3.59-2.42,5.54-4.53,4.35-4.72s-5.06,1.62-8.66,4-5.54,4.53-4.36,4.72S206.71,251.9,210.31,249.48Z" style="fill:#407BFF"></path><path d="M256.12,213.77c3.6-2.41,5.55-4.53,4.36-4.71s-5.07,1.62-8.66,4-5.55,4.53-4.36,4.72S252.52,216.19,256.12,213.77Z" style="fill:#407BFF"></path><path d="M231,315.91c3.59-2.42,5.55-4.53,4.36-4.72s-5.07,1.62-8.66,4-5.55,4.53-4.36,4.71S227.36,318.32,231,315.91Z" style="fill:#407BFF"></path><path d="M155.52,348.46c3.6-2.41,5.55-4.53,4.36-4.71s-5.06,1.62-8.66,4-5.55,4.53-4.36,4.72S151.93,350.88,155.52,348.46Z" style="fill:#407BFF"></path><path d="M138.18,304.82c3.6-2.41,5.55-4.52,4.36-4.71s-5.06,1.62-8.66,4-5.55,4.53-4.36,4.72S134.59,307.24,138.18,304.82Z" style="fill:#407BFF"></path><path d="M218.86,162.32c-3.59,2.42-5.55,4.53-4.36,4.72s5.07-1.62,8.67-4,5.54-4.53,4.35-4.72S222.46,159.9,218.86,162.32Z" style="fill:#407BFF"></path><path d="M100.86,256.86c-4.81,3.24-7.42,6.06-5.83,6.31s6.78-2.16,11.59-5.4,7.42-6.06,5.83-6.31S105.67,253.63,100.86,256.86Z" style="fill:#407BFF"></path><path d="M138.82,211.07c-1.79,1.21-2.77,2.27-2.18,2.36s2.54-.81,4.34-2,2.77-2.26,2.17-2.35S140.62,209.87,138.82,211.07Z" style="fill:#407BFF"></path><path d="M287.34,110.32c-1.8,1.21-2.77,2.26-2.18,2.36s2.54-.81,4.33-2,2.78-2.27,2.18-2.36S289.14,109.11,287.34,110.32Z" style="fill:#407BFF"></path><path d="M258.29,191.08c3.6-2.42,5.55-4.53,4.36-4.72s-5.06,1.62-8.66,4-5.55,4.53-4.36,4.71S254.7,193.49,258.29,191.08Z" style="fill:#407BFF"></path><path d="M373.2,156c3.6-2.42,5.55-4.53,4.36-4.72s-5.06,1.62-8.66,4-5.55,4.52-4.36,4.71S369.61,158.41,373.2,156Z" style="fill:#407BFF"></path><path d="M301.94,221.11c3.59-2.42,5.54-4.53,4.35-4.72s-5.06,1.62-8.66,4-5.54,4.53-4.35,4.72S298.34,223.53,301.94,221.11Z" style="fill:#407BFF"></path><path d="M252.2,256.65c3.59-2.42,5.54-4.53,4.35-4.72s-5.06,1.62-8.66,4-5.54,4.53-4.36,4.71S248.6,259.06,252.2,256.65Z" style="fill:#407BFF"></path><path d="M292.3,187.93c3.6-2.42,5.55-4.53,4.36-4.71s-5.07,1.61-8.66,4-5.55,4.53-4.36,4.72S288.71,190.35,292.3,187.93Z" style="fill:#407BFF"></path><path d="M380.06,194c3.6-2.42,5.55-4.53,4.36-4.72s-5.07,1.62-8.66,4-5.55,4.53-4.36,4.71S376.47,196.43,380.06,194Z" style="fill:#407BFF"></path><path d="M123.41,271.89c-3.6,2.41-5.55,4.52-4.36,4.71s5.07-1.62,8.66-4,5.55-4.53,4.36-4.72S127,269.47,123.41,271.89Z" style="fill:#407BFF"></path><path d="M330.82,196.4c-5,3.38-7.76,6.34-6.1,6.6s7.09-2.26,12.12-5.65,7.76-6.33,6.1-6.6S335.85,193,330.82,196.4Z" style="fill:#407BFF"></path><path d="M225,189.63c3.6-2.42,5.55-4.53,4.36-4.72s-5.07,1.62-8.66,4-5.55,4.52-4.36,4.71S221.37,192,225,189.63Z" style="fill:#407BFF"></path><path d="M282,151.29c-5,3.38-7.76,6.33-6.1,6.6s7.09-2.27,12.12-5.65,7.76-6.34,6.1-6.6S287,147.9,282,151.29Z" style="fill:#407BFF"></path><path d="M154.08,324.76c4.57-3.07,7-5.75,5.54-6s-6.44,2.05-11,5.12-7,5.75-5.53,6S149.52,327.82,154.08,324.76Z" style="fill:#407BFF"></path><path d="M339.73,142.6c1.8-1.21,2.77-2.27,2.18-2.36s-2.53.81-4.33,2-2.77,2.26-2.18,2.36S337.93,143.81,339.73,142.6Z" style="fill:#407BFF"></path><path d="M417.93,194c3.6-2.42,5.55-4.53,4.36-4.72s-5.07,1.62-8.66,4-5.55,4.53-4.36,4.71S414.34,196.43,417.93,194Z" style="fill:#407BFF"></path><path d="M340.42,256.91c3.6-2.42,5.55-4.53,4.36-4.72s-5.07,1.62-8.66,4-5.55,4.52-4.36,4.71S336.82,259.32,340.42,256.91Z" style="fill:#407BFF"></path><path d="M399.19,297.06c3.6-2.42,5.55-4.53,4.36-4.72s-5.07,1.62-8.66,4-5.55,4.53-4.36,4.72S395.6,299.48,399.19,297.06Z" style="fill:#407BFF"></path><path d="M293,311.52c3.59-2.42,5.54-4.53,4.36-4.72s-5.07,1.62-8.67,4-5.54,4.53-4.35,4.71S289.35,313.93,293,311.52Z" style="fill:#407BFF"></path><path d="M404.8,263.3c-5,3.38-7.76,6.34-6.1,6.6s7.09-2.27,12.12-5.65,7.76-6.33,6.1-6.6S409.83,259.92,404.8,263.3Z" style="fill:#407BFF"></path><path d="M349.79,299.62c-5,3.38-7.76,6.34-6.1,6.6s7.09-2.27,12.12-5.65,7.76-6.34,6.1-6.6S354.82,296.24,349.79,299.62Z" style="fill:#407BFF"></path><path d="M328.58,234.13c-5,3.39-7.76,6.34-6.1,6.6s7.09-2.26,12.12-5.65,7.76-6.33,6.1-6.6S333.61,230.75,328.58,234.13Z" style="fill:#407BFF"></path><path d="M377.7,222.93c1.8-1.21,2.77-2.27,2.18-2.36s-2.53.81-4.33,2-2.77,2.26-2.18,2.36S375.9,224.14,377.7,222.93Z" style="fill:#407BFF"></path><path d="M227.3,133.37c3.59-2.42,5.55-4.53,4.36-4.72s-5.07,1.62-8.67,4-5.54,4.53-4.35,4.72S223.7,135.79,227.3,133.37Z" style="fill:#407BFF"></path><path d="M261.47,129c3.59-2.42,5.54-4.53,4.36-4.72s-5.07,1.62-8.67,4-5.54,4.53-4.35,4.72S257.87,131.4,261.47,129Z" style="fill:#407BFF"></path><path d="M156.15,238.2c3.6-2.42,5.55-4.53,4.36-4.72s-5.07,1.62-8.66,4-5.55,4.53-4.36,4.72S152.56,240.62,156.15,238.2Z" style="fill:#407BFF"></path><path d="M410,152.09c3.6-2.41,5.55-4.53,4.36-4.71s-5.07,1.62-8.66,4-5.55,4.53-4.36,4.72S406.37,154.51,410,152.09Z" style="fill:#407BFF"></path><path d="M112.75,172.7c3.6-2.42,5.55-4.53,4.36-4.72s-5.07,1.62-8.66,4-5.55,4.53-4.36,4.71S109.15,175.11,112.75,172.7Z" style="fill:#407BFF"></path><path d="M329.55,161.31c3.59-2.41,5.54-4.53,4.35-4.71s-5.06,1.62-8.66,4-5.54,4.53-4.35,4.72S326,163.73,329.55,161.31Z" style="fill:#407BFF"></path><path d="M101.84,341.35c3.6-2.42,5.55-4.53,4.36-4.72s-5.06,1.62-8.66,4-5.55,4.53-4.36,4.72S98.25,343.77,101.84,341.35Z" style="fill:#407BFF"></path><path d="M142.93,135.35c3.6-2.42,5.55-4.53,4.36-4.72s-5.06,1.62-8.66,4-5.55,4.52-4.36,4.71S139.34,137.76,142.93,135.35Z" style="fill:#407BFF"></path><path d="M98.84,208c-3.6,2.42-5.55,4.53-4.36,4.72s5.07-1.62,8.66-4,5.55-4.53,4.36-4.72S102.43,205.62,98.84,208Z" style="fill:#407BFF"></path><path d="M66.93,253.61c-3.6,2.42-5.55,4.53-4.36,4.72s5.07-1.62,8.66-4,5.55-4.53,4.36-4.71S70.52,251.2,66.93,253.61Z" style="fill:#407BFF"></path><path d="M330.88,124.82c-5,3.38-7.76,6.34-6.1,6.6s7.09-2.26,12.12-5.65,7.76-6.33,6.1-6.6S335.91,121.44,330.88,124.82Z" style="fill:#407BFF"></path><path d="M195.6,119.49c3.59-2.41,5.55-4.52,4.36-4.71s-5.07,1.62-8.67,4-5.54,4.53-4.35,4.72S192,121.91,195.6,119.49Z" style="fill:#407BFF"></path><path d="M253.54,100.69c-5,3.39-7.76,6.34-6.1,6.6s7.09-2.26,12.12-5.64,7.76-6.34,6.1-6.6S258.57,97.31,253.54,100.69Z" style="fill:#407BFF"></path><path d="M165.46,156.58c-1.8,1.21-2.78,2.27-2.18,2.36s2.53-.81,4.33-2,2.77-2.26,2.18-2.35S167.25,155.38,165.46,156.58Z" style="fill:#407BFF"></path><path d="M72.71,172.19c-1.8,1.21-2.77,2.26-2.18,2.36s2.53-.81,4.33-2,2.77-2.27,2.18-2.36S74.51,171,72.71,172.19Z" style="fill:#407BFF"></path><g style="opacity:0.8"><path d="M385.64,246.39c3.59-2.41,5.54-4.53,4.35-4.71s-5.06,1.61-8.66,4-5.54,4.53-4.36,4.72S382,248.81,385.64,246.39Z" style="fill:#407BFF"></path><path d="M385.64,246.39c3.59-2.41,5.54-4.53,4.35-4.71s-5.06,1.61-8.66,4-5.54,4.53-4.36,4.72S382,248.81,385.64,246.39Z" style="fill:#407BFF"></path></g><path d="M303.21,348.9c-2.62,1.76-4,3.29-3.17,3.43s3.69-1.18,6.31-2.94,4-3.3,3.17-3.43S305.83,347.13,303.21,348.9Z" style="fill:#407BFF"></path><path d="M395.47,331.46c-2.62,1.76-4,3.3-3.17,3.44s3.69-1.18,6.31-2.94,4-3.3,3.17-3.44S398.09,329.7,395.47,331.46Z" style="fill:#407BFF"></path><path d="M391.3,361.77c-2.62,1.76-4,3.3-3.18,3.43s3.69-1.18,6.31-2.94,4-3.3,3.18-3.43S393.92,360,391.3,361.77Z" style="fill:#407BFF"></path><path d="M83.34,286.72c-2.61,1.76-4,3.29-3.17,3.43s3.69-1.18,6.31-2.94,4-3.3,3.17-3.43S86,285,83.34,286.72Z" style="fill:#407BFF"></path><path d="M325.83,326.25c-2.62,1.76-4,3.3-3.18,3.44s3.69-1.18,6.31-2.94,4-3.3,3.18-3.44S328.45,324.49,325.83,326.25Z" style="fill:#407BFF"></path><path d="M341.89,364.14c-4.36,2.93-6.72,5.49-5.28,5.71s6.14-2,10.49-4.89,6.72-5.48,5.28-5.71S346.24,361.21,341.89,364.14Z" style="fill:#407BFF"></path><path d="M362.38,336.62c-4.36,2.92-6.72,5.48-5.28,5.71s6.14-2,10.49-4.89,6.72-5.49,5.28-5.71S366.73,333.69,362.38,336.62Z" style="fill:#407BFF"></path><path d="M111.55,363.26c-4.35,2.93-6.72,5.49-5.28,5.72s6.14-2,10.49-4.89,6.72-5.49,5.28-5.72S115.91,360.34,111.55,363.26Z" style="fill:#407BFF"></path><path d="M290.28,379c-2.62,1.76-4,3.3-3.17,3.43s3.69-1.18,6.3-2.94,4-3.3,3.18-3.43S292.9,377.23,290.28,379Z" style="fill:#407BFF"></path><g style="opacity:0.6000000000000001"><path d="M173,300.83c-3.65,2.46-5.63,4.6-4.43,4.79s5.15-1.64,8.8-4.1,5.63-4.59,4.42-4.78S176.64,298.38,173,300.83Z" style="fill:#fff"></path><path d="M224.27,293.23c-3.65,2.45-5.63,4.6-4.42,4.79s5.14-1.65,8.79-4.1,5.63-4.6,4.42-4.79S227.92,290.77,224.27,293.23Z" style="fill:#fff"></path><path d="M288.64,270c-3.59,2.42-5.54,4.53-4.35,4.72s5.06-1.62,8.66-4,5.54-4.53,4.36-4.72S292.24,267.55,288.64,270Z" style="fill:#fff"></path><path d="M204.89,282.33c-1.8,1.21-2.78,2.26-2.18,2.36s2.53-.81,4.33-2,2.77-2.27,2.18-2.36S206.68,281.12,204.89,282.33Z" style="fill:#fff"></path><path d="M170.27,274.74c-1.8,1.21-2.78,2.26-2.18,2.36s2.53-.81,4.33-2,2.77-2.27,2.18-2.36S172.06,273.53,170.27,274.74Z" style="fill:#fff"></path><path d="M196.32,350.2c-1.79,1.21-2.77,2.27-2.18,2.36s2.54-.81,4.34-2,2.77-2.26,2.17-2.35S198.12,349,196.32,350.2Z" style="fill:#fff"></path><path d="M210.31,249.48c3.59-2.42,5.54-4.53,4.35-4.72s-5.06,1.62-8.66,4-5.54,4.53-4.36,4.72S206.71,251.9,210.31,249.48Z" style="fill:#fff"></path><path d="M256.12,213.77c3.6-2.41,5.55-4.53,4.36-4.71s-5.07,1.62-8.66,4-5.55,4.53-4.36,4.72S252.52,216.19,256.12,213.77Z" style="fill:#fff"></path><path d="M231,315.91c3.59-2.42,5.55-4.53,4.36-4.72s-5.07,1.62-8.66,4-5.55,4.53-4.36,4.71S227.36,318.32,231,315.91Z" style="fill:#fff"></path><path d="M155.52,348.46c3.6-2.41,5.55-4.53,4.36-4.71s-5.06,1.62-8.66,4-5.55,4.53-4.36,4.72S151.93,350.88,155.52,348.46Z" style="fill:#fff"></path><path d="M138.18,304.82c3.6-2.41,5.55-4.52,4.36-4.71s-5.06,1.62-8.66,4-5.55,4.53-4.36,4.72S134.59,307.24,138.18,304.82Z" style="fill:#fff"></path><path d="M218.86,162.32c-3.59,2.42-5.55,4.53-4.36,4.72s5.07-1.62,8.67-4,5.54-4.53,4.35-4.72S222.46,159.9,218.86,162.32Z" style="fill:#fff"></path><path d="M100.86,256.86c-4.81,3.24-7.42,6.06-5.83,6.31s6.78-2.16,11.59-5.4,7.42-6.06,5.83-6.31S105.67,253.63,100.86,256.86Z" style="fill:#fff"></path><path d="M138.82,211.07c-1.79,1.21-2.77,2.27-2.18,2.36s2.54-.81,4.34-2,2.77-2.26,2.17-2.35S140.62,209.87,138.82,211.07Z" style="fill:#fff"></path><path d="M287.34,110.32c-1.8,1.21-2.77,2.26-2.18,2.36s2.54-.81,4.33-2,2.78-2.27,2.18-2.36S289.14,109.11,287.34,110.32Z" style="fill:#fff"></path><path d="M258.29,191.08c3.6-2.42,5.55-4.53,4.36-4.72s-5.06,1.62-8.66,4-5.55,4.53-4.36,4.71S254.7,193.49,258.29,191.08Z" style="fill:#fff"></path><path d="M373.2,156c3.6-2.42,5.55-4.53,4.36-4.72s-5.06,1.62-8.66,4-5.55,4.52-4.36,4.71S369.61,158.41,373.2,156Z" style="fill:#fff"></path><path d="M301.94,221.11c3.59-2.42,5.54-4.53,4.35-4.72s-5.06,1.62-8.66,4-5.54,4.53-4.35,4.72S298.34,223.53,301.94,221.11Z" style="fill:#fff"></path><path d="M252.2,256.65c3.59-2.42,5.54-4.53,4.35-4.72s-5.06,1.62-8.66,4-5.54,4.53-4.36,4.71S248.6,259.06,252.2,256.65Z" style="fill:#fff"></path><path d="M292.3,187.93c3.6-2.42,5.55-4.53,4.36-4.71s-5.07,1.61-8.66,4-5.55,4.53-4.36,4.72S288.71,190.35,292.3,187.93Z" style="fill:#fff"></path><path d="M380.06,194c3.6-2.42,5.55-4.53,4.36-4.72s-5.07,1.62-8.66,4-5.55,4.53-4.36,4.71S376.47,196.43,380.06,194Z" style="fill:#fff"></path><path d="M123.41,271.89c-3.6,2.41-5.55,4.52-4.36,4.71s5.07-1.62,8.66-4,5.55-4.53,4.36-4.72S127,269.47,123.41,271.89Z" style="fill:#fff"></path><path d="M330.82,196.4c-5,3.38-7.76,6.34-6.1,6.6s7.09-2.26,12.12-5.65,7.76-6.33,6.1-6.6S335.85,193,330.82,196.4Z" style="fill:#fff"></path><path d="M225,189.63c3.6-2.42,5.55-4.53,4.36-4.72s-5.07,1.62-8.66,4-5.55,4.52-4.36,4.71S221.37,192,225,189.63Z" style="fill:#fff"></path><path d="M282,151.29c-5,3.38-7.76,6.33-6.1,6.6s7.09-2.27,12.12-5.65,7.76-6.34,6.1-6.6S287,147.9,282,151.29Z" style="fill:#fff"></path><path d="M154.08,324.76c4.57-3.07,7-5.75,5.54-6s-6.44,2.05-11,5.12-7,5.75-5.53,6S149.52,327.82,154.08,324.76Z" style="fill:#fff"></path><path d="M339.73,142.6c1.8-1.21,2.77-2.27,2.18-2.36s-2.53.81-4.33,2-2.77,2.26-2.18,2.36S337.93,143.81,339.73,142.6Z" style="fill:#fff"></path><path d="M417.93,194c3.6-2.42,5.55-4.53,4.36-4.72s-5.07,1.62-8.66,4-5.55,4.53-4.36,4.71S414.34,196.43,417.93,194Z" style="fill:#fff"></path><path d="M340.42,256.91c3.6-2.42,5.55-4.53,4.36-4.72s-5.07,1.62-8.66,4-5.55,4.52-4.36,4.71S336.82,259.32,340.42,256.91Z" style="fill:#fff"></path><path d="M399.19,297.06c3.6-2.42,5.55-4.53,4.36-4.72s-5.07,1.62-8.66,4-5.55,4.53-4.36,4.72S395.6,299.48,399.19,297.06Z" style="fill:#fff"></path><path d="M293,311.52c3.59-2.42,5.54-4.53,4.36-4.72s-5.07,1.62-8.67,4-5.54,4.53-4.35,4.71S289.35,313.93,293,311.52Z" style="fill:#fff"></path><path d="M404.8,263.3c-5,3.38-7.76,6.34-6.1,6.6s7.09-2.27,12.12-5.65,7.76-6.33,6.1-6.6S409.83,259.92,404.8,263.3Z" style="fill:#fff"></path><path d="M349.79,299.62c-5,3.38-7.76,6.34-6.1,6.6s7.09-2.27,12.12-5.65,7.76-6.34,6.1-6.6S354.82,296.24,349.79,299.62Z" style="fill:#fff"></path><path d="M328.58,234.13c-5,3.39-7.76,6.34-6.1,6.6s7.09-2.26,12.12-5.65,7.76-6.33,6.1-6.6S333.61,230.75,328.58,234.13Z" style="fill:#fff"></path><path d="M377.7,222.93c1.8-1.21,2.77-2.27,2.18-2.36s-2.53.81-4.33,2-2.77,2.26-2.18,2.36S375.9,224.14,377.7,222.93Z" style="fill:#fff"></path><path d="M227.3,133.37c3.59-2.42,5.55-4.53,4.36-4.72s-5.07,1.62-8.67,4-5.54,4.53-4.35,4.72S223.7,135.79,227.3,133.37Z" style="fill:#fff"></path><path d="M261.47,129c3.59-2.42,5.54-4.53,4.36-4.72s-5.07,1.62-8.67,4-5.54,4.53-4.35,4.72S257.87,131.4,261.47,129Z" style="fill:#fff"></path><path d="M156.15,238.2c3.6-2.42,5.55-4.53,4.36-4.72s-5.07,1.62-8.66,4-5.55,4.53-4.36,4.72S152.56,240.62,156.15,238.2Z" style="fill:#fff"></path><path d="M410,152.09c3.6-2.41,5.55-4.53,4.36-4.71s-5.07,1.62-8.66,4-5.55,4.53-4.36,4.72S406.37,154.51,410,152.09Z" style="fill:#fff"></path><path d="M112.75,172.7c3.6-2.42,5.55-4.53,4.36-4.72s-5.07,1.62-8.66,4-5.55,4.53-4.36,4.71S109.15,175.11,112.75,172.7Z" style="fill:#fff"></path><path d="M329.55,161.31c3.59-2.41,5.54-4.53,4.35-4.71s-5.06,1.62-8.66,4-5.54,4.53-4.35,4.72S326,163.73,329.55,161.31Z" style="fill:#fff"></path><path d="M101.84,341.35c3.6-2.42,5.55-4.53,4.36-4.72s-5.06,1.62-8.66,4-5.55,4.53-4.36,4.72S98.25,343.77,101.84,341.35Z" style="fill:#fff"></path><path d="M142.93,135.35c3.6-2.42,5.55-4.53,4.36-4.72s-5.06,1.62-8.66,4-5.55,4.52-4.36,4.71S139.34,137.76,142.93,135.35Z" style="fill:#fff"></path><path d="M98.84,208c-3.6,2.42-5.55,4.53-4.36,4.72s5.07-1.62,8.66-4,5.55-4.53,4.36-4.72S102.43,205.62,98.84,208Z" style="fill:#fff"></path><path d="M66.93,253.61c-3.6,2.42-5.55,4.53-4.36,4.72s5.07-1.62,8.66-4,5.55-4.53,4.36-4.71S70.52,251.2,66.93,253.61Z" style="fill:#fff"></path><path d="M330.88,124.82c-5,3.38-7.76,6.34-6.1,6.6s7.09-2.26,12.12-5.65,7.76-6.33,6.1-6.6S335.91,121.44,330.88,124.82Z" style="fill:#fff"></path><path d="M195.6,119.49c3.59-2.41,5.55-4.52,4.36-4.71s-5.07,1.62-8.67,4-5.54,4.53-4.35,4.72S192,121.91,195.6,119.49Z" style="fill:#fff"></path><path d="M253.54,100.69c-5,3.39-7.76,6.34-6.1,6.6s7.09-2.26,12.12-5.64,7.76-6.34,6.1-6.6S258.57,97.31,253.54,100.69Z" style="fill:#fff"></path><path d="M165.46,156.58c-1.8,1.21-2.78,2.27-2.18,2.36s2.53-.81,4.33-2,2.77-2.26,2.18-2.35S167.25,155.38,165.46,156.58Z" style="fill:#fff"></path><path d="M72.71,172.19c-1.8,1.21-2.77,2.26-2.18,2.36s2.53-.81,4.33-2,2.77-2.27,2.18-2.36S74.51,171,72.71,172.19Z" style="fill:#fff"></path><g style="opacity:0.8"><path d="M385.64,246.39c3.59-2.41,5.54-4.53,4.35-4.71s-5.06,1.61-8.66,4-5.54,4.53-4.36,4.72S382,248.81,385.64,246.39Z" style="fill:#fff"></path><path d="M385.64,246.39c3.59-2.41,5.54-4.53,4.35-4.71s-5.06,1.61-8.66,4-5.54,4.53-4.36,4.72S382,248.81,385.64,246.39Z" style="fill:#fff"></path></g><path d="M303.21,348.9c-2.62,1.76-4,3.29-3.17,3.43s3.69-1.18,6.31-2.94,4-3.3,3.17-3.43S305.83,347.13,303.21,348.9Z" style="fill:#fff"></path><path d="M395.47,331.46c-2.62,1.76-4,3.3-3.17,3.44s3.69-1.18,6.31-2.94,4-3.3,3.17-3.44S398.09,329.7,395.47,331.46Z" style="fill:#fff"></path><path d="M391.3,361.77c-2.62,1.76-4,3.3-3.18,3.43s3.69-1.18,6.31-2.94,4-3.3,3.18-3.43S393.92,360,391.3,361.77Z" style="fill:#fff"></path><path d="M83.34,286.72c-2.61,1.76-4,3.29-3.17,3.43s3.69-1.18,6.31-2.94,4-3.3,3.17-3.43S86,285,83.34,286.72Z" style="fill:#fff"></path><path d="M325.83,326.25c-2.62,1.76-4,3.3-3.18,3.44s3.69-1.18,6.31-2.94,4-3.3,3.18-3.44S328.45,324.49,325.83,326.25Z" style="fill:#fff"></path><path d="M341.89,364.14c-4.36,2.93-6.72,5.49-5.28,5.71s6.14-2,10.49-4.89,6.72-5.48,5.28-5.71S346.24,361.21,341.89,364.14Z" style="fill:#fff"></path><path d="M362.38,336.62c-4.36,2.92-6.72,5.48-5.28,5.71s6.14-2,10.49-4.89,6.72-5.49,5.28-5.71S366.73,333.69,362.38,336.62Z" style="fill:#fff"></path><path d="M111.55,363.26c-4.35,2.93-6.72,5.49-5.28,5.72s6.14-2,10.49-4.89,6.72-5.49,5.28-5.72S115.91,360.34,111.55,363.26Z" style="fill:#fff"></path><path d="M290.28,379c-2.62,1.76-4,3.3-3.17,3.43s3.69-1.18,6.3-2.94,4-3.3,3.18-3.43S292.9,377.23,290.28,379Z" style="fill:#fff"></path></g></g><g id="freepik--Character--inject-155"><path d="M265.17,381.24c-4.86,16-56.84.16-57.77,0l2.18-15.43-13.91,14.66c-10.65-.94-10.49-2.34-17.36-11.17-7.46-9.6-20.78-2.6-29.77-2.92-11.07-.39-8.24-6.35-8.24-11,3.32-2.72,51.34-26.76,58.55-37.44.73-1.08,2-2.19,2.36-3.45.63-2.21,1.25-4.43,1.88-6.64,1.41-5,2.82-10,4.45-14.95.86-2.61,23-56,26.45-58.37,10.67-7.15,31.18,9.57,31.18,9.57s5.73,4.1,2.93,11.81c-2.08,5.7-18.34,44.33-18.34,44.33s18.34,31.21,21.29,55.14C271.37,358,265.94,378.71,265.17,381.24Z" style="fill:#407BFF"></path><path d="M276.46,205.67A28.66,28.66,0,0,1,271,238c-1.08,1.06-2.25,2-3.22,3.19a12.58,12.58,0,0,0-2.83,6.72c-.26,2.6.24,5.46-1.2,7.63-2-1.45-2.23-4.28-2.65-6.73a23.68,23.68,0,0,0-3.31-8.66c3.34-4.49,6.69-9,9-14.1s3.51-10.86,2.32-16.31c.67-.47,1.52-1.08,2.19-1.54A23.25,23.25,0,0,1,276.46,205.67Z" style="fill:#407BFF"></path><path d="M263.09,245.29l23.48.15H288c.28,0,.32,0,1.16,0a7.6,7.6,0,0,1,1.28.2,1.32,1.32,0,0,0-1.08.52.73.73,0,0,0,0,.67.71.71,0,0,0,.2.29c.06.06,0-.1-.1-.19l-.2-.32-.38-.62-6.16-10a3.08,3.08,0,0,1,5-3.54l7.36,9.15.46.57.22.29a2.43,2.43,0,0,1,.31.42,7,7,0,0,1,1.19,3,7.39,7.39,0,0,1-4.74,8,7.66,7.66,0,0,1-3.53.34c-.27,0-.28,0-.16,0,.35,0-.1,0-.3.07l-1.46.17-23.31,2.78a6,6,0,1,1-1.43-11.93A6.3,6.3,0,0,1,263.09,245.29Z" style="fill:#407BFF"></path><g style="opacity:0.2"><path d="M263.09,245.29l23.48.15H288c.28,0,.32,0,1.16,0a7.6,7.6,0,0,1,1.28.2,1.32,1.32,0,0,0-1.08.52.73.73,0,0,0,0,.67.71.71,0,0,0,.2.29c.06.06,0-.1-.1-.19l-.2-.32-.38-.62-6.16-10a3.08,3.08,0,0,1,5-3.54l7.36,9.15.46.57.22.29a2.43,2.43,0,0,1,.31.42,7,7,0,0,1,1.19,3,7.39,7.39,0,0,1-4.74,8,7.66,7.66,0,0,1-3.53.34c-.27,0-.28,0-.16,0,.35,0-.1,0-.3.07l-1.46.17-23.31,2.78a6,6,0,1,1-1.43-11.93A6.3,6.3,0,0,1,263.09,245.29Z" style="fill:#fff"></path></g><polygon points="243.59 367.64 253.02 374.36 234.7 396.16 227.77 392.11 243.59 367.64" style="fill:#f7978d"></polygon><polygon points="156.56 373.48 163.57 382.7 138.93 396.31 133.51 390.39 156.56 373.48" style="fill:#f7978d"></polygon><path d="M222,307.78a21.16,21.16,0,0,0,.89,4.71c2.35,8.17,29,40.42,27.5,41.84-5.78,5.48-10.69,13.06-17,28.32,2.87,2.37,5.83,3.08,8.83,6.05,0,0,20.64-22.09,25.2-31.5,2.81-5.81-21.22-60.52-26-63.41C238.7,292.17,220.35,292.25,222,307.78Z" style="fill:#263238"></path><path d="M246.18,385.42c.06,0-3.27,4.51-3.27,4.51l-11.13-7.32,2.46-4.52Z" style="fill:#263238"></path><path d="M246.18,385.42c.06,0-3.27,4.51-3.27,4.51l-11.13-7.32,2.46-4.52Z" style="fill:#fff;opacity:0.6000000000000001"></path><path d="M246.62,292.5s-.44,19-51,67.49c-7.55,7.25-40.09,30-40.09,30s-7.26-6.84-8.37-10.39c0,0,24.07-25.75,34.29-31,1.26-.65,15.24-18.42,23.8-32.2a41.59,41.59,0,0,0,5.84-17.82,30.7,30.7,0,0,1,8.15-17.87s6.38,1,15.9,5.38Z" style="fill:#263238"></path><path d="M159.37,389.64c0,.06-4.7,3-4.7,3l-10-12.88,4-3.31Z" style="fill:#263238"></path><path d="M144.64,379.76l4-3.31,10.78,13.19c0,.06-4.7,3-4.7,3Z" style="fill:#fff;opacity:0.6000000000000001"></path><path d="M222.83,315.92c-.76.05,23.1-15.49,23.1-15.49l3-7.93-16.84-6.06S223.46,315.88,222.83,315.92Z" style="fill:#263238"></path><g id="freepik--Character--inject-2--inject-155"><path d="M235.29,235.9a7.21,7.21,0,0,1,7.5-2.45l.07,0c2,.77,4.47,1.79,6.81,3a120.65,120.65,0,0,1,15.19,10.05,6.7,6.7,0,0,1,1.76,6.46c-1.68,7.36-5.05,21.28-17.73,39.54L218.79,281S227.5,274,235.29,235.9Z" style="fill:#fff"></path></g><polygon points="229.43 323.76 234.93 316.47 241.75 340.9 229.43 323.76" style="isolation:isolate;opacity:0.2"></polygon><path d="M216.29,405.54l2.83,1.26,1.31-.9.93,1.91,20.06,8.77a9.66,9.66,0,0,0,1.14-4.54s-7.88-4-8.62-7.59a.66.66,0,0,0-.51-.55c-1.87-.37-9.26-8.57-12.3-5.08C219.67,400.49,216.29,405.54,216.29,405.54Z" style="fill:#407BFF"></path><path d="M239.59,392.36,235,400.09a25.29,25.29,0,0,0-1.91,4.9c-.83,2.41-12.75-5.19-12.75-5.19l8.23-14Z" style="fill:#407BFF"></path><path d="M119.43,396.37l2.07,2.3,1.57-.29.07,2.12,14.75,16.18a9.61,9.61,0,0,0,2.89-3.68s-5.57-6.84-4.78-10.44a.69.69,0,0,0-.24-.72c-1.56-1.09-5-11.59-9.18-9.64C124.57,393.14,119.43,396.37,119.43,396.37Z" style="fill:#407BFF"></path><path d="M146.07,393.82,138.74,399a26.15,26.15,0,0,0-3.74,3.7c-1.74,1.87-9.54-9.92-9.54-9.92l13.21-9.41Z" style="fill:#407BFF"></path><path d="M263,235.47a13.27,13.27,0,0,0-.88,1.24c-.14.2-.26.39-.39.59-.37.6-2.26,4.22-1.5,5.42,1,1.54,2.26,4.29.68,5.19-5,2.84-11.22-11.46-11.22-11.46,4.34-1.51,7.12-7.32,8.22-12.14l2.16,4.72Z" style="fill:#f7978d"></path><path d="M261.78,237.53c-.14.19-.26.39-.38.59-.38.6-.68,1-.91,1.43-1.59-1.33-3-4.31-2.35-6.26a8.79,8.79,0,0,1,.82-1.89Z" style="isolation:isolate;opacity:0.2"></path><path d="M263.45,213.45a8.6,8.6,0,0,1,12,2.24c4.06,5.63,0,14.47-4.17,18.78a8.5,8.5,0,0,1-14.54-3.9c-1.11-4.65.9-7.91,3.85-13.75A8.57,8.57,0,0,1,263.45,213.45Z" style="fill:#f7978d"></path><path d="M274.34,228a.25.25,0,0,1-.2-.09,3.41,3.41,0,0,1-.25-.37,1.82,1.82,0,0,0-.42-.51.26.26,0,0,1-.1-.26.23.23,0,0,1,.21-.19,2.79,2.79,0,0,0,1.24-.52.25.25,0,1,1,.3.4,3.21,3.21,0,0,1-1,.51,3.28,3.28,0,0,1,.2.31,2.44,2.44,0,0,0,.22.31.24.24,0,0,1,0,.35A.22.22,0,0,1,274.34,228Z" style="fill:#263238"></path><path d="M269.32,234.7a33,33,0,0,1-6.79-2.94c1.37-1.46,2.82-1.48,5.29-.15S269.32,234.7,269.32,234.7Z" style="fill:#263238"></path><path d="M269.08,234.62a1.33,1.33,0,0,0-.37-1.27,24.78,24.78,0,0,0-4.48-1.79,1.39,1.39,0,0,0-1.48.29A38.31,38.31,0,0,0,269.08,234.62Z" style="fill:#fafafa"></path><path d="M268.53,233.43a14.43,14.43,0,0,1-4.1-1.59,2.26,2.26,0,0,1-.69-1c1.05-.48,2.31-.2,4.08.74a3.16,3.16,0,0,1,1.57,1.55A3.68,3.68,0,0,1,268.53,233.43Z" style="fill:#fafafa"></path><path d="M269.81,231a3,3,0,0,0,2.48.48,19.6,19.6,0,0,1-.82-5.21Z" style="fill:#ff5652"></path><path d="M261,209.73l-5,1.18a10.66,10.66,0,0,0-2.77.94,3.06,3.06,0,0,0,.19,5.67,3.66,3.66,0,0,0-1.22,2.83,4.23,4.23,0,0,0,1.46,3,2.81,2.81,0,0,0,.13,2.38c.36.81,2.59,1.58,2.49,4.25a30.21,30.21,0,0,1,2.54-5.36c1.06-1.63,3.52-5.69,6.93-4.84.75.19,4.47-6,2.37-6.76C266.82,212.5,261.56,209.6,261,209.73Z" style="fill:#263238"></path><path d="M277,220a27.16,27.16,0,0,0-.89-7.35,6.38,6.38,0,0,0-1.39-2.62,2.89,2.89,0,0,0-2.77-.89,9.55,9.55,0,0,0-1.69-2.2,3.68,3.68,0,0,0-2.52-1,2.14,2.14,0,0,0-2.13,1.32,14.38,14.38,0,0,0-4-.3A5.65,5.65,0,0,0,258,208.6a3.58,3.58,0,0,0-.76,3.75,7.68,7.68,0,0,1,6.26-1.24c2.07.6,3.82,3.31,4.65,5.3a5.62,5.62,0,0,1,5.94,2.83,2,2,0,0,1,1.78-.19C276.37,219.32,277,219.45,277,220Z" style="fill:#263238"></path><path d="M259.57,219c1.48.38,1.81,1.9,1.6,3.8-.34,2.39-1.95,4.05-3.47,3.08-1.12-.6-1.46-2.6-1.3-4C256.6,220.06,258,218.55,259.57,219Z" style="fill:#f7978d"></path><path d="M269.27,223.9c.29.19.29.75,0,1.17s-.7.63-1,.45-.28-.68-.05-1.16S269,223.71,269.27,223.9Z" style="fill:#263238"></path><path d="M275.05,223.18a.3.3,0,0,1,.19.22,2.64,2.64,0,0,0,1.28,1.92.3.3,0,0,1,.15.4h0a.33.33,0,0,1-.42.15h0a3.23,3.23,0,0,1-1.62-2.37.32.32,0,0,1,.26-.36A.45.45,0,0,1,275.05,223.18Z" style="fill:#263238"></path><path d="M268.41,221.89a.3.3,0,0,1,.29,0,2.67,2.67,0,0,0,2.31,0,.29.29,0,0,1,.41.09v0a.31.31,0,0,1-.11.42h0a3.19,3.19,0,0,1-2.87,0,.31.31,0,0,1-.15-.41A.25.25,0,0,1,268.41,221.89Z" style="fill:#263238"></path><path d="M245.55,233.21c-1.27-.32,6.46-14,3.34-18.11s10.33-11.24,18.75-10.1c7,.95,9,.48,9,.48s-20,14.82-20.12,39.56C256.36,267.25,254.54,235.47,245.55,233.21Z" style="fill:#407BFF"></path><path d="M207.54,292.88c.86-2.61,23-56,26.45-58.37,6-4,20.55-5.55,21.9,18.34.16,2.88,3.76-.17,5.89-2.85,2.41-3-.55-6.64-.55-6.64s10.24,2.58,6.87,12.53c-2,5.75-18.34,44.33-18.34,44.33Z" style="fill:#407BFF"></path><g style="opacity:0.2"><path d="M207.54,292.88c.86-2.61,23-56,26.45-58.37,6-4,20.55-5.55,21.9,18.34.16,2.88,3.76-.17,5.89-2.85,2.41-3-.55-6.64-.55-6.64s10.24,2.58,6.87,12.53c-2,5.75-18.34,44.33-18.34,44.33Z" style="fill:#fff"></path></g><circle cx="245.88" cy="285.32" r="1.65" style="fill:#fff"></circle><circle cx="250.61" cy="273.42" r="1.65" style="fill:#fff"></circle><circle cx="255.21" cy="260.6" r="1.65" style="fill:#fff"></circle><path d="M245.55,233.21c-1.27-.32,6.46-14,3.34-18.11s10.33-11.24,18.75-10.1c7,.95,9,.48,9,.48s-20,14.82-20.12,39.56C256.36,267.25,254.54,235.47,245.55,233.21Z" style="fill:#fff;opacity:0.30000000000000004"></path><path d="M144.77,151.33c15.81.75,33.14-5.39,44.58-16.32,7.41,5.35,16.57,8.86,25.42,11.21-.16.07-2.44,12.57-1.29,29.09.27,3.9.74,8,1.31,12.2a61,61,0,0,1-3,29.33c-.05.15-.11.29-.16.43a60.77,60.77,0,0,1-22,28.34,94.29,94.29,0,0,0-16,14c-10-.2-22.1-.5-31.55,2.76a63.8,63.8,0,0,0-28.54-40.83C129.27,200.94,140.59,176.91,144.77,151.33Z" style="fill:#263238"></path><path d="M144.77,151.33c15.81.75,33.14-5.39,44.58-16.32,7.41,5.35,16.57,8.86,25.42,11.21-.16.07-2.44,12.57-1.29,29.09.27,3.9.74,8,1.31,12.2a61,61,0,0,1-3,29.33c-.05.15-.11.29-.16.43a60.77,60.77,0,0,1-22,28.34,94.29,94.29,0,0,0-16,14c-10-.2-22.1-.5-31.55,2.76a63.8,63.8,0,0,0-28.54-40.83C129.27,200.94,140.59,176.91,144.77,151.33Z" style="fill:#fff;opacity:0.4"></path><rect x="137.27" y="243.06" width="88.6" height="1" transform="translate(-85.2 98.22) rotate(-24.71)" style="fill:#263238"></rect><rect x="166.61" y="168.12" width="1" height="109.5" transform="translate(-62.23 380.99) rotate(-87.72)" style="fill:#263238"></rect><rect x="181.9" y="133.21" width="1" height="108.76" transform="translate(-79.23 190.59) rotate(-46.46)" style="fill:#263238"></rect><rect x="205.02" y="130.22" width="1" height="97.63" transform="translate(-47.97 78.87) rotate(-19.5)" style="fill:#263238"></rect><rect x="246.34" y="207.6" width="2.29" height="55.22" transform="translate(-62.3 378.76) rotate(-68.41)" style="fill:#263238"></rect><g style="opacity:0.6000000000000001"><rect x="246.34" y="207.6" width="2.29" height="55.22" transform="translate(-62.3 378.76) rotate(-68.41)" style="fill:#fff"></rect></g><path d="M276.69,248.51a6.7,6.7,0,0,1-2.42-.46l-12.45-4.89a2,2,0,0,1,1.46-3.73l12.45,4.9a2.67,2.67,0,1,0,2-5l-.54-.22a2,2,0,0,1,1.47-3.72l.54.22a6.59,6.59,0,0,1,3.67,3.55,6.67,6.67,0,0,1-6.14,9.32Z" style="fill:#263238"></path><path d="M113.53,221.53l.59-.76L221.37,225l0,.21-79.47,36.55A63.71,63.71,0,0,0,113.53,221.53Z" style="opacity:0.1"></path><path d="M141.94,261.79l79.47-36.55c0,.2.06.4.1.59-16.65,10.72-38.09,20.25-47.88,33.78-10-.2-22.1-.5-31.55,2.76C142,262.18,142,262,141.94,261.79Z" style="opacity:0.2"></path><path d="M144.77,151.33c15.8.75,33.14-5.38,44.57-16.32l.79.55L221,222.77c.1.61.19,1.2.28,1.78L144.7,151.76C144.72,151.62,144.74,151.47,144.77,151.33Z" style="opacity:0.1"></path><path d="M144.7,151.76l76.59,72.79c0,.16.05.32.08.48l-107.25-4.26C129.45,200.46,140.51,176.86,144.7,151.76Z" style="fill:none"></path><path d="M190.13,135.56c7.28,5.05,16.11,8.39,24.63,10.66-.14.07-2.43,12.61-1.28,29.1,1.07,15.34,5.49,34.18,7.53,47.45Z" style="opacity:0.2"></path><path d="M269.76,249.83l1.49-5.56,4.06-2.45a2.16,2.16,0,0,1,1.74-.21l1,.3a2.14,2.14,0,0,1,1.14,3.25L277.23,248l-3.08,4.44Z" style="fill:#f7978d"></path><path d="M232.37,239.55c0-.1,2.53,24.91,8,27.7s11-2.52,11-2.52S232.22,241.19,232.37,239.55Z" style="isolation:isolate;opacity:0.2"></path><path d="M244.2,237.75l5.41,21.41.11.43a1.12,1.12,0,0,0-.39-.5.91.91,0,0,0-.52-.18,1,1,0,0,0-.51.13.67.67,0,0,0-.11.07l0,0,.09,0,.23-.11.89-.44,7.12-3.49,14.25-7a3.08,3.08,0,0,1,3,5.37l-13.5,8.43-6.75,4.22-.84.53-.21.13-.13.08-.25.13a8.46,8.46,0,0,1-1,.45,8,8,0,0,1-4.42.25,8.1,8.1,0,0,1-3.92-2.13,8.3,8.3,0,0,1-2.23-4l.11.43-7.8-20.65A6,6,0,1,1,244,237.1,5.38,5.38,0,0,1,244.2,237.75Z" style="fill:#407BFF"></path><g style="opacity:0.30000000000000004"><path d="M244.2,237.75l5.41,21.41.11.43a1.12,1.12,0,0,0-.39-.5.91.91,0,0,0-.52-.18,1,1,0,0,0-.51.13.67.67,0,0,0-.11.07l0,0,.09,0,.23-.11.89-.44,7.12-3.49,14.25-7a3.08,3.08,0,0,1,3,5.37l-13.5,8.43-6.75,4.22-.84.53-.21.13-.13.08-.25.13a8.46,8.46,0,0,1-1,.45,8,8,0,0,1-4.42.25,8.1,8.1,0,0,1-3.92-2.13,8.3,8.3,0,0,1-2.23-4l.11.43-7.8-20.65A6,6,0,1,1,244,237.1,5.38,5.38,0,0,1,244.2,237.75Z" style="fill:#fff"></path></g><path d="M281.6,234.15l-3.27-1.7,4.92-4.65,3.37,3.44a1.08,1.08,0,0,1,.09,1.42l-.31.42A3.81,3.81,0,0,1,281.6,234.15Z" style="fill:#f7978d"></path><polygon points="278.33 232.45 276.33 228.46 279.22 224.31 283.25 227.8 278.33 232.45" style="fill:#f7978d"></polygon><path d="M239,297.92s27.83,46.39,25.68,57.44c-1.34,6.95-17.54,21.36-17.54,21.36l9.94-.17a9.07,9.07,0,0,1,8.11,4.69h0s5.88-14.11,5.88-25.88c0-17.56-21.29-55.14-21.29-55.14Z" style="fill:#407BFF"></path><path d="M239,297.92s27.83,46.39,25.68,57.44c-1.34,6.95-17.54,21.36-17.54,21.36l9.94-.17a9.07,9.07,0,0,1,8.11,4.69h0s5.88-14.11,5.88-25.88c0-17.56-21.29-55.14-21.29-55.14Z" style="fill:#fff;opacity:0.2"></path><path d="M238.48,298.33l-30.94-5.45-6.33,21.59s-14,18.6-21.81,20.3S227.06,322.83,238.48,298.33Z" style="fill:#407BFF"></path><path d="M238.48,298.33l-30.94-5.45-6.33,21.59s-14,18.6-21.81,20.3S228.22,322,238.48,298.33Z" style="fill:#fff;opacity:0.2"></path><path d="M239,297.92s-8.07,15.15-18.64,23.11-80,34.33-80,34.33,21.71-17.18,16.26-29.18S214.8,334.94,239,297.92Z" style="fill:#407BFF"></path><path d="M239,297.92s-8.07,15.15-18.64,23.11-80,34.33-80,34.33,21.71-15.84,16.26-29.18C151.63,314.1,214.8,334.94,239,297.92Z" style="fill:#fff;opacity:0.30000000000000004"></path></g><g id="freepik--rain-splashes--inject-155"><g style="opacity:0.5"><path d="M250,415.28a3.61,3.61,0,0,1,2.21,1.41,2.25,2.25,0,0,1-1.8,1.1,5.7,5.7,0,0,0,3.06-.27,2.23,2.23,0,0,0,1.12-.72.91.91,0,0,0-.09-1.22,1.36,1.36,0,0,0-.89-.17C252.55,415.44,251.06,415.33,250,415.28Z" style="fill:#fff;opacity:0.6000000000000001"></path><path d="M217.64,415.28a3.61,3.61,0,0,0-2.21,1.41,2.25,2.25,0,0,0,1.8,1.1,5.71,5.71,0,0,1-3.06-.27,2.23,2.23,0,0,1-1.12-.72.91.91,0,0,1,.09-1.22,1.36,1.36,0,0,1,.89-.17C215.09,415.44,216.58,415.33,217.64,415.28Z" style="fill:#fff;opacity:0.6000000000000001"></path></g><path d="M221.54,411.43c-.62-1.43-2-2.87-2.77-4.31a2.45,2.45,0,0,1-.42-2c.24-.5,1.11-.61,1.91-.08a3.56,3.56,0,0,1,1.06,1.17c1.06,1.78.86,3.5,2.24,5.24a9.67,9.67,0,0,0,6.06,3.15c2,.26,3.76,0,5.83.38.72.14,1.85.76,1.77,1.29s-8.44,0-9.65.1c-3.2.17-6.19.68-9.36.89C218.74,414.85,223.31,415.51,221.54,411.43Z" style="fill:#407BFF"></path><path d="M221.54,411.43c-.62-1.43-2-2.87-2.77-4.31a2.45,2.45,0,0,1-.42-2c.24-.5,1.11-.61,1.91-.08a3.56,3.56,0,0,1,1.06,1.17c1.06,1.78.86,3.5,2.24,5.24a9.67,9.67,0,0,0,6.06,3.15c2,.26,3.76,0,5.83.38.72.14,1.85.76,1.77,1.29s-8.44,0-9.65.1c-3.2.17-6.19.68-9.36.89C218.74,414.85,223.31,415.51,221.54,411.43Z" style="fill:#fff;opacity:0.30000000000000004"></path><path d="M221.54,411.43c-.62-1.43-2-2.87-2.77-4.31a2.45,2.45,0,0,1-.42-2c.24-.5,1.11-.61,1.91-.08a3.56,3.56,0,0,1,1.06,1.17c1.06,1.78.86,3.5,2.24,5.24a9.67,9.67,0,0,0,6.06,3.15c2,.26,3.76,0,5.83.38.72.14,1.85.76,1.77,1.29s-8.44,0-9.65.1c-3.2.17-6.19.68-9.36.89C218.74,414.85,223.31,415.51,221.54,411.43Z" style="fill:#fff;opacity:0.4"></path><path d="M241.22,411.31c1.12-1.41,1.55-2.88,2.52-4.32a6,6,0,0,1,2-1.94c.83-.46,1.79-.5,1.92.06a1.8,1.8,0,0,1-.38,1.19c-1.13,1.78-3.38,3.41-4.15,5.18s.42,3,2,3.43,3.62.26,5.12.78a.73.73,0,0,1,.15,1.36c-.9.63-8.12-.56-9.35-.59-3.27-.06-6.74.22-10,.2C234.44,414.38,238,415.33,241.22,411.31Z" style="fill:#407BFF"></path><path d="M241.22,411.31c1.12-1.41,1.55-2.88,2.52-4.32a6,6,0,0,1,2-1.94c.83-.46,1.79-.5,1.92.06a1.8,1.8,0,0,1-.38,1.19c-1.13,1.78-3.38,3.41-4.15,5.18s.42,3,2,3.43,3.62.26,5.12.78a.73.73,0,0,1,.15,1.36c-.9.63-8.12-.56-9.35-.59-3.27-.06-6.74.22-10,.2C234.44,414.38,238,415.33,241.22,411.31Z" style="fill:#fff;opacity:0.6000000000000001"></path><path d="M237.39,406.08a23.63,23.63,0,0,0-.08-2.91,1.9,1.9,0,0,1,.54-1.31,1,1,0,0,1,1.32,0,1.16,1.16,0,0,1,.22.8c0,1.19-.86,2.32-.66,3.5a3.19,3.19,0,0,0,2.77,2.21c1.24.22,2.54.09,3.76.41.42.11.93.54.65.89s-5.67-.2-6.51-.18c-2.22,0-4.44.29-6.65.34C234.1,408.25,236.9,408.8,237.39,406.08Z" style="fill:#407BFF"></path><path d="M237.39,406.08a23.63,23.63,0,0,0-.08-2.91,1.9,1.9,0,0,1,.54-1.31,1,1,0,0,1,1.32,0,1.16,1.16,0,0,1,.22.8c0,1.19-.86,2.32-.66,3.5a3.19,3.19,0,0,0,2.77,2.21c1.24.22,2.54.09,3.76.41.42.11.93.54.65.89s-5.67-.2-6.51-.18c-2.22,0-4.44.29-6.65.34C234.1,408.25,236.9,408.8,237.39,406.08Z" style="fill:#fff;opacity:0.8"></path><path d="M228.42,416.64c-.07-2.65-1.12-5.16-2.09-7.63q-2.1-5.38-3.7-10.94a17.77,17.77,0,0,1-1-7.45,2.66,2.66,0,0,1,.86-1.8c1.17-.87,2.89.44,3.13,1.88s-.4,2.87-.65,4.31c-.63,3.62,1.12,7.18,2.83,10.43.44.84,1.3,1.83,2.14,1.39a1.86,1.86,0,0,0,.73-1.29c.35-1.46.71-2.92,1.06-4.38,1.34-.36,2.23,1.48,2.07,2.87s-.74,2.9,0,4.08c1.39.61,2.76-.85,3.58-2.13-.26,1.24,1,2.38,2.26,2.49a6.31,6.31,0,0,0,3.56-1.13,8,8,0,0,1,3.5-1.39,1.47,1.47,0,0,1,1.14.33,1.37,1.37,0,0,1,.31.68c.27,1.55-1.12,2.94-2.58,3.55s-3.1.79-4.45,1.61-2.17,2.06-3.4,2.91-3.15,1.1-4-.09l-3.12,1.56Z" style="fill:#407BFF"></path><path d="M228.42,416.64c-.07-2.65-1.12-5.16-2.09-7.63q-2.1-5.38-3.7-10.94a17.77,17.77,0,0,1-1-7.45,2.66,2.66,0,0,1,.86-1.8c1.17-.87,2.89.44,3.13,1.88s-.4,2.87-.65,4.31c-.63,3.62,1.12,7.18,2.83,10.43.44.84,1.3,1.83,2.14,1.39a1.86,1.86,0,0,0,.73-1.29c.35-1.46.71-2.92,1.06-4.38,1.34-.36,2.23,1.48,2.07,2.87s-.74,2.9,0,4.08c1.39.61,2.76-.85,3.58-2.13-.26,1.24,1,2.38,2.26,2.49a6.31,6.31,0,0,0,3.56-1.13,8,8,0,0,1,3.5-1.39,1.47,1.47,0,0,1,1.14.33,1.37,1.37,0,0,1,.31.68c.27,1.55-1.12,2.94-2.58,3.55s-3.1.79-4.45,1.61-2.17,2.06-3.4,2.91-3.15,1.1-4-.09l-3.12,1.56Z" style="fill:#fff;opacity:0.7000000000000001"></path><path d="M250.36,401.31a1.37,1.37,0,1,0,.76-1.79A1.38,1.38,0,0,0,250.36,401.31Z" style="fill:#407BFF"></path><path d="M250.36,401.31a1.37,1.37,0,1,0,.76-1.79A1.38,1.38,0,0,0,250.36,401.31Z" style="fill:#fff;opacity:0.4"></path><path d="M241.93,394.78a1.91,1.91,0,1,0,1-2.48A1.91,1.91,0,0,0,241.93,394.78Z" style="fill:#407BFF"></path><path d="M241.93,394.78a1.91,1.91,0,1,0,1-2.48A1.91,1.91,0,0,0,241.93,394.78Z" style="fill:#fff;opacity:0.4"></path><path d="M218.75,402a.84.84,0,0,0,1.11.47.86.86,0,1,0-1.11-.47Z" style="fill:#407BFF"></path><path d="M218.75,402a.84.84,0,0,0,1.11.47.86.86,0,1,0-1.11-.47Z" style="fill:#fff;opacity:0.4"></path><g style="opacity:0.5"><path d="M293.24,415.16a3.13,3.13,0,0,1,1.93,1.24,2,2,0,0,1-1.57,1,5.06,5.06,0,0,0,2.67-.24,1.92,1.92,0,0,0,1-.63.8.8,0,0,0-.08-1.07,1.18,1.18,0,0,0-.77-.15C295.47,415.3,294.17,415.2,293.24,415.16Z" style="fill:#fff;opacity:0.6000000000000001"></path><path d="M268.36,415.16a3.13,3.13,0,0,0-1.93,1.24,2,2,0,0,0,1.57,1,5.06,5.06,0,0,1-2.67-.24,1.92,1.92,0,0,1-1-.63.8.8,0,0,1,.08-1.07,1.18,1.18,0,0,1,.77-.15C266.13,415.3,267.43,415.2,268.36,415.16Z" style="fill:#fff;opacity:0.6000000000000001"></path></g><path d="M276.67,413.42a18.34,18.34,0,0,0-.06-2.22,1.44,1.44,0,0,1,.41-1,.75.75,0,0,1,1,0,.92.92,0,0,1,.18.61c0,.92-.67,1.78-.51,2.69a2.45,2.45,0,0,0,2.13,1.7c.95.17,1.94.07,2.88.31.33.08.71.42.5.68s-4.36-.15-5-.14c-1.71,0-3.41.23-5.1.27C274.14,415.09,276.29,415.51,276.67,413.42Z" style="fill:#fff;opacity:0.4"></path><path d="M284.49,412.84a27.39,27.39,0,0,0-.08-3,1.92,1.92,0,0,1,.55-1.36,1,1,0,0,1,1.36,0,1.24,1.24,0,0,1,.24.82c0,1.24-.9,2.4-.69,3.62a3.3,3.3,0,0,0,2.87,2.3c1.28.23,2.62.09,3.88.41.44.12,1,.57.68.92s-5.87-.2-6.74-.18c-2.3,0-4.59.3-6.87.36C281.08,415.09,284,415.65,284.49,412.84Z" style="fill:#407BFF"></path><path d="M284.49,412.84a27.39,27.39,0,0,0-.08-3,1.92,1.92,0,0,1,.55-1.36,1,1,0,0,1,1.36,0,1.24,1.24,0,0,1,.24.82c0,1.24-.9,2.4-.69,3.62a3.3,3.3,0,0,0,2.87,2.3c1.28.23,2.62.09,3.88.41.44.12,1,.57.68.92s-5.87-.2-6.74-.18c-2.3,0-4.59.3-6.87.36C281.08,415.09,284,415.65,284.49,412.84Z" style="fill:#fff;opacity:0.7000000000000001"></path><path d="M273.21,412.84a25.1,25.1,0,0,0-.08-3,2,2,0,0,1,.55-1.36,1,1,0,0,1,1.36,0,1.24,1.24,0,0,1,.24.82c0,1.24-.9,2.4-.68,3.62s1.58,2.07,2.86,2.3,2.62.09,3.88.41c.44.12,1,.57.68.92s-5.87-.2-6.74-.18c-2.29,0-4.58.3-6.87.36C269.8,415.09,272.7,415.65,273.21,412.84Z" style="fill:#407BFF"></path><path d="M273.21,412.84a25.1,25.1,0,0,0-.08-3,2,2,0,0,1,.55-1.36,1,1,0,0,1,1.36,0,1.24,1.24,0,0,1,.24.82c0,1.24-.9,2.4-.68,3.62s1.58,2.07,2.86,2.3,2.62.09,3.88.41c.44.12,1,.57.68.92s-5.87-.2-6.74-.18c-2.29,0-4.58.3-6.87.36C269.8,415.09,272.7,415.65,273.21,412.84Z" style="fill:#fff;opacity:0.7000000000000001"></path><path d="M281.57,408.16a1,1,0,0,0,1.24.53,1,1,0,0,0,.53-1.25,1,1,0,0,0-1.77.72Z" style="fill:#407BFF"></path><path d="M281.57,408.16a1,1,0,0,0,1.24.53,1,1,0,0,0,.53-1.25,1,1,0,0,0-1.77.72Z" style="fill:#fff;opacity:0.4"></path><path d="M281.57,408.16a1,1,0,0,0,1.24.53,1,1,0,0,0,.53-1.25,1,1,0,0,0-1.77.72Z" style="fill:#fff;opacity:0.4"></path><path d="M275.72,403.63a1.32,1.32,0,0,0,1.72.73,1.33,1.33,0,1,0-1.72-.73Z" style="fill:#407BFF"></path><path d="M275.72,403.63a1.32,1.32,0,0,0,1.72.73,1.33,1.33,0,1,0-1.72-.73Z" style="fill:#fff;opacity:0.4"></path><g style="opacity:0.5"><path d="M275.72,403.63a1.32,1.32,0,0,0,1.72.73,1.33,1.33,0,1,0-1.72-.73Z" style="fill:#fff"></path><path d="M275.72,403.63a1.32,1.32,0,0,0,1.72.73,1.33,1.33,0,1,0-1.72-.73Z" style="fill:#fff;opacity:0.4"></path></g><g style="opacity:0.5"><path d="M346.41,408.34a3.58,3.58,0,0,1,2.21,1.42,2.24,2.24,0,0,1-1.8,1.09,5.76,5.76,0,0,0,3.05-.26,2.3,2.3,0,0,0,1.13-.73.91.91,0,0,0-.09-1.22,1.42,1.42,0,0,0-.89-.17C349,408.51,347.47,408.39,346.41,408.34Z" style="fill:#fff;opacity:0.6000000000000001"></path><path d="M318,408.34a3.63,3.63,0,0,0-2.22,1.42,2.24,2.24,0,0,0,1.8,1.09,5.77,5.77,0,0,1-3.05-.26,2.27,2.27,0,0,1-1.12-.73.89.89,0,0,1,.09-1.22,1.41,1.41,0,0,1,.89-.17C315.47,408.51,317,408.39,318,408.34Z" style="fill:#fff;opacity:0.6000000000000001"></path></g><path d="M336.8,406.9a19.69,19.69,0,0,1,.06-2.3,1.47,1.47,0,0,0-.43-1.05.76.76,0,0,0-1,0,.89.89,0,0,0-.18.63c0,1,.69,1.85.52,2.79a2.51,2.51,0,0,1-2.2,1.76c-1,.18-2,.07-3,.32-.34.09-.74.44-.52.71s4.52-.15,5.18-.14c1.77,0,3.53.23,5.29.28C339.42,408.63,337.19,409.07,336.8,406.9Z" style="fill:#fff;opacity:0.4"></path><path d="M328.7,406.3a27,27,0,0,1,.08-3.11,2,2,0,0,0-.57-1.41,1,1,0,0,0-1.41,0,1.28,1.28,0,0,0-.25.85c0,1.29.93,2.49.71,3.76s-1.64,2.14-3,2.37-2.71.09-4,.43c-.46.12-1,.59-.7,1s6.08-.21,7-.2c2.38,0,4.75.32,7.12.38C332.23,408.63,329.23,409.21,328.7,406.3Z" style="fill:#407BFF"></path><path d="M328.7,406.3a27,27,0,0,1,.08-3.11,2,2,0,0,0-.57-1.41,1,1,0,0,0-1.41,0,1.28,1.28,0,0,0-.25.85c0,1.29.93,2.49.71,3.76s-1.64,2.14-3,2.37-2.71.09-4,.43c-.46.12-1,.59-.7,1s6.08-.21,7-.2c2.38,0,4.75.32,7.12.38C332.23,408.63,329.23,409.21,328.7,406.3Z" style="fill:#fff;opacity:0.7000000000000001"></path><path d="M340.39,406.3a25,25,0,0,1,.08-3.11,2,2,0,0,0-.58-1.41,1,1,0,0,0-1.4,0,1.28,1.28,0,0,0-.25.85c0,1.29.93,2.49.71,3.76s-1.64,2.14-3,2.37-2.71.09-4,.43c-.46.12-1,.59-.7,1s6.08-.21,7-.2c2.38,0,4.75.32,7.12.38C343.92,408.63,340.92,409.21,340.39,406.3Z" style="fill:#407BFF"></path><path d="M340.39,406.3a25,25,0,0,1,.08-3.11,2,2,0,0,0-.58-1.41,1,1,0,0,0-1.4,0,1.28,1.28,0,0,0-.25.85c0,1.29.93,2.49.71,3.76s-1.64,2.14-3,2.37-2.71.09-4,.43c-.46.12-1,.59-.7,1s6.08-.21,7-.2c2.38,0,4.75.32,7.12.38C343.92,408.63,340.92,409.21,340.39,406.3Z" style="fill:#fff;opacity:0.7000000000000001"></path><path d="M331.72,401.45a1,1,0,0,1-1.83-.74,1,1,0,1,1,1.83.74Z" style="fill:#407BFF"></path><path d="M331.72,401.45a1,1,0,0,1-1.83-.74,1,1,0,1,1,1.83.74Z" style="fill:#fff;opacity:0.4"></path><path d="M331.72,401.45a1,1,0,0,1-1.83-.74,1,1,0,1,1,1.83.74Z" style="fill:#fff;opacity:0.4"></path><path d="M337.79,396.75A1.38,1.38,0,1,1,337,395,1.39,1.39,0,0,1,337.79,396.75Z" style="fill:#407BFF"></path><path d="M337.79,396.75A1.38,1.38,0,1,1,337,395,1.39,1.39,0,0,1,337.79,396.75Z" style="fill:#fff;opacity:0.4"></path><g style="opacity:0.5"><path d="M337.79,396.75A1.38,1.38,0,1,1,337,395,1.39,1.39,0,0,1,337.79,396.75Z" style="fill:#fff"></path><path d="M337.79,396.75A1.38,1.38,0,1,1,337,395,1.39,1.39,0,0,1,337.79,396.75Z" style="fill:#fff;opacity:0.4"></path></g><path d="M89.56,413.38c.29-.47-.14-1.05-.54-1.43-2.38-2.26-5-4.63-8.22-5.13a5.14,5.14,0,0,1-2.21-.58c-.64-.43-.91-1.49-.29-1.95s1.17-.13,1.73.11l5,2.14c0-1,.44-1.78.46-2.73.79-.43,1.7.34,2.15,1.12s.83,1.75,1.69,2c-.29-.43-.14-.58,0-1.08,1,.17,1.46,1.33,1.91,2.25s1.5,1.87,2.36,1.32a2.57,2.57,0,0,0,.79-1.29,5.12,5.12,0,0,1,4.72-3c.31,0,.69.1.76.4a.78.78,0,0,1-.28.66l-2.67,3a4.11,4.11,0,0,1,4.44-1.67c.6.86-.32,2-1.31,2.4s-2.16.43-2.9,1.19-.84,2-1.66,2.61c-1.24,1-3.12,0-4.65.42l.37.3" style="fill:#407BFF"></path><path d="M89.56,413.38c.29-.47-.14-1.05-.54-1.43-2.38-2.26-5-4.63-8.22-5.13a5.14,5.14,0,0,1-2.21-.58c-.64-.43-.91-1.49-.29-1.95s1.17-.13,1.73.11l5,2.14c0-1,.44-1.78.46-2.73.79-.43,1.7.34,2.15,1.12s.83,1.75,1.69,2c-.29-.43-.14-.58,0-1.08,1,.17,1.46,1.33,1.91,2.25s1.5,1.87,2.36,1.32a2.57,2.57,0,0,0,.79-1.29,5.12,5.12,0,0,1,4.72-3c.31,0,.69.1.76.4a.78.78,0,0,1-.28.66l-2.67,3a4.11,4.11,0,0,1,4.44-1.67c.6.86-.32,2-1.31,2.4s-2.16.43-2.9,1.19-.84,2-1.66,2.61c-1.24,1-3.12,0-4.65.42l.37.3" style="fill:#fff;opacity:0.7000000000000001"></path><path d="M100,403.12a1.13,1.13,0,1,0,.62-1.46A1.14,1.14,0,0,0,100,403.12Z" style="fill:#407BFF"></path><path d="M100,403.12a1.13,1.13,0,1,0,.62-1.46A1.14,1.14,0,0,0,100,403.12Z" style="fill:#fff;opacity:0.4"></path><path d="M93.12,397.77a1.56,1.56,0,1,0,.86-2A1.57,1.57,0,0,0,93.12,397.77Z" style="fill:#407BFF"></path><path d="M93.12,397.77a1.56,1.56,0,1,0,.86-2A1.57,1.57,0,0,0,93.12,397.77Z" style="fill:#fff;opacity:0.4"></path><path d="M74.11,403.65a.7.7,0,1,0,1.3-.53.69.69,0,0,0-.91-.39A.71.71,0,0,0,74.11,403.65Z" style="fill:#407BFF"></path><path d="M74.11,403.65a.7.7,0,1,0,1.3-.53.69.69,0,0,0-.91-.39A.71.71,0,0,0,74.11,403.65Z" style="fill:#fff;opacity:0.4"></path><path d="M423.91,413.45c-.28-.44.13-1,.51-1.35,2.24-2.13,4.68-4.36,7.73-4.83a4.91,4.91,0,0,0,2.09-.54c.6-.41.86-1.41.27-1.84s-1.11-.12-1.63.11l-4.68,2c0-.89-.42-1.68-.43-2.57-.74-.41-1.61.32-2,1.06s-.79,1.64-1.6,1.88c.27-.41.13-.55,0-1-.95.15-1.38,1.24-1.8,2.11s-1.41,1.76-2.22,1.24a2.44,2.44,0,0,1-.75-1.22,4.82,4.82,0,0,0-4.43-2.86c-.3,0-.66.1-.73.39a.74.74,0,0,0,.27.61l2.52,2.82a3.88,3.88,0,0,0-4.19-1.58c-.57.82.31,1.92,1.24,2.27s2,.41,2.73,1.11.79,1.85,1.56,2.47c1.17.93,2.94,0,4.38.4l-.35.28Z" style="fill:#407BFF"></path><path d="M423.91,413.45c-.28-.44.13-1,.51-1.35,2.24-2.13,4.68-4.36,7.73-4.83a4.91,4.91,0,0,0,2.09-.54c.6-.41.86-1.41.27-1.84s-1.11-.12-1.63.11l-4.68,2c0-.89-.42-1.68-.43-2.57-.74-.41-1.61.32-2,1.06s-.79,1.64-1.6,1.88c.27-.41.13-.55,0-1-.95.15-1.38,1.24-1.8,2.11s-1.41,1.76-2.22,1.24a2.44,2.44,0,0,1-.75-1.22,4.82,4.82,0,0,0-4.43-2.86c-.3,0-.66.1-.73.39a.74.74,0,0,0,.27.61l2.52,2.82a3.88,3.88,0,0,0-4.19-1.58c-.57.82.31,1.92,1.24,2.27s2,.41,2.73,1.11.79,1.85,1.56,2.47c1.17.93,2.94,0,4.38.4l-.35.28Z" style="fill:#fff;opacity:0.7000000000000001"></path><path d="M436.66,408.15a.84.84,0,0,0,1.08.45.83.83,0,0,0-.62-1.53A.84.84,0,0,0,436.66,408.15Z" style="fill:#407BFF"></path><path d="M436.66,408.15a.84.84,0,0,0,1.08.45.83.83,0,0,0-.62-1.53A.84.84,0,0,0,436.66,408.15Z" style="fill:#fff;opacity:0.4"></path><path d="M429.46,402a1.26,1.26,0,0,0,2.34-.94,1.26,1.26,0,1,0-2.34.94Z" style="fill:#407BFF"></path><path d="M429.46,402a1.26,1.26,0,0,0,2.34-.94,1.26,1.26,0,1,0-2.34.94Z" style="fill:#fff;opacity:0.4"></path><path d="M409.75,403.88a.77.77,0,1,0,.43-1A.78.78,0,0,0,409.75,403.88Z" style="fill:#407BFF"></path><path d="M409.75,403.88a.77.77,0,1,0,.43-1A.78.78,0,0,0,409.75,403.88Z" style="fill:#fff;opacity:0.4"></path><path d="M152,409c-.2-.32.09-.71.36-1,1.58-1.51,3.31-3.09,5.47-3.42a3.53,3.53,0,0,0,1.48-.38c.42-.29.6-1,.19-1.3a1.21,1.21,0,0,0-1.16.07L155,404.46c0-.63-.29-1.19-.3-1.82-.53-.29-1.14.22-1.43.75s-.56,1.16-1.13,1.33c.19-.29.1-.39,0-.72-.68.11-1,.88-1.27,1.5s-1,1.24-1.58.87a1.65,1.65,0,0,1-.52-.86,3.43,3.43,0,0,0-3.14-2c-.21,0-.47.07-.52.27a.54.54,0,0,0,.19.43c.6.67,1.19,1.34,1.79,2a2.75,2.75,0,0,0-3-1.12c-.41.58.21,1.36.87,1.61s1.44.29,1.93.79.56,1.31,1.1,1.74c.83.66,2.09,0,3.11.28l-.25.2Z" style="fill:#407BFF"></path><path d="M152,409c-.2-.32.09-.71.36-1,1.58-1.51,3.31-3.09,5.47-3.42a3.53,3.53,0,0,0,1.48-.38c.42-.29.6-1,.19-1.3a1.21,1.21,0,0,0-1.16.07L155,404.46c0-.63-.29-1.19-.3-1.82-.53-.29-1.14.22-1.43.75s-.56,1.16-1.13,1.33c.19-.29.1-.39,0-.72-.68.11-1,.88-1.27,1.5s-1,1.24-1.58.87a1.65,1.65,0,0,1-.52-.86,3.43,3.43,0,0,0-3.14-2c-.21,0-.47.07-.52.27a.54.54,0,0,0,.19.43c.6.67,1.19,1.34,1.79,2a2.75,2.75,0,0,0-3-1.12c-.41.58.21,1.36.87,1.61s1.44.29,1.93.79.56,1.31,1.1,1.74c.83.66,2.09,0,3.11.28l-.25.2Z" style="fill:#fff;opacity:0.7000000000000001"></path><path d="M161,405.26a.58.58,0,1,0,.33-.76A.58.58,0,0,0,161,405.26Z" style="fill:#407BFF"></path><path d="M161,405.26a.58.58,0,1,0,.33-.76A.58.58,0,0,0,161,405.26Z" style="fill:#fff;opacity:0.4"></path><path d="M155.88,400.94a.9.9,0,0,0,1.66-.67.9.9,0,1,0-1.66.67Z" style="fill:#407BFF"></path><path d="M155.88,400.94a.9.9,0,0,0,1.66-.67.9.9,0,1,0-1.66.67Z" style="fill:#fff;opacity:0.4"></path><path d="M141.94,402.24a.55.55,0,1,0,.3-.71A.56.56,0,0,0,141.94,402.24Z" style="fill:#407BFF"></path><path d="M141.94,402.24a.55.55,0,1,0,.3-.71A.56.56,0,0,0,141.94,402.24Z" style="fill:#fff;opacity:0.4"></path></g><g id="freepik--Leaves--inject-155"><path d="M321.05,281.65l.16-.1a6.81,6.81,0,0,0,5.39,1.26c2.16-.3,4.22-1.18,6.38-1.51a8.2,8.2,0,0,1,3.85.28,6.87,6.87,0,0,1,.9.89,1.55,1.55,0,0,1-.2,2.31C329.14,293,322.31,284.14,321.05,281.65Z" style="fill:#263238"></path><path d="M321.05,281.65l.16-.1a6.81,6.81,0,0,0,5.39,1.26c2.16-.3,4.22-1.18,6.38-1.51a8.2,8.2,0,0,1,3.85.28,6.87,6.87,0,0,1,.9.89,1.55,1.55,0,0,1-.2,2.31C329.14,293,322.31,284.14,321.05,281.65Z" style="fill:#fff;opacity:0.30000000000000004"></path><path d="M336.51,284.45l3.37.54c.88-.13.85-1,.22-1.15C339,284.21,336.68,283.77,336.51,284.45Z" style="fill:#263238"></path><path d="M95.68,240.26l.13.07a5.29,5.29,0,0,1,4.1-1.34c1.7.09,3.35.64,5,.75a6.41,6.41,0,0,0,3-.47,4.63,4.63,0,0,0,.63-.75,1.21,1.21,0,0,0-.3-1.78C101.21,230.93,96.49,238.25,95.68,240.26Z" style="fill:#263238"></path><path d="M107.5,237.06l2.58-.64c.69,0,.73.74.24.88" style="fill:#263238"></path><path d="M95.68,240.26l.13.07a5.29,5.29,0,0,1,4.1-1.34c1.7.09,3.35.64,5,.75a6.41,6.41,0,0,0,3-.47,4.63,4.63,0,0,0,.63-.75,1.21,1.21,0,0,0-.3-1.78C101.21,230.93,96.49,238.25,95.68,240.26Z" style="fill:#fff;opacity:0.30000000000000004"></path><path d="M235.7,169.88l.13.06a5.32,5.32,0,0,1,4.1-1.34c1.7.09,3.35.64,5.06.75a6.37,6.37,0,0,0,3-.46,6,6,0,0,0,.64-.76,1.2,1.2,0,0,0-.31-1.78C241.23,160.54,236.51,167.86,235.7,169.88Z" style="fill:#263238"></path><path d="M247.52,166.68l2.58-.65c.69.05.73.75.24.89" style="fill:#263238"></path><path d="M235.7,169.88l.13.06a5.32,5.32,0,0,1,4.1-1.34c1.7.09,3.35.64,5.06.75a6.37,6.37,0,0,0,3-.46,6,6,0,0,0,.64-.76,1.2,1.2,0,0,0-.31-1.78C241.23,160.54,236.51,167.86,235.7,169.88Z" style="fill:#fff;opacity:0.30000000000000004"></path><path d="M99.41,317.89l-.19.05a7.07,7.07,0,0,0-5.06-2.73c-2.25-.28-4.55.05-6.81-.21a8.44,8.44,0,0,1-3.79-1.32,6.93,6.93,0,0,1-.65-1.13,1.61,1.61,0,0,1,.82-2.27C94.36,304.33,98.82,315.05,99.41,317.89Z" style="fill:#263238"></path><path d="M84.66,310.89l-3.23-1.46c-.92-.1-1.13.81-.53,1.11C82.13,310.46,84.31,311.53,84.66,310.89Z" style="fill:#263238"></path><path d="M99.41,317.89l-.19.05a7.07,7.07,0,0,0-5.06-2.73c-2.25-.28-4.55.05-6.81-.21a8.44,8.44,0,0,1-3.79-1.32,6.93,6.93,0,0,1-.65-1.13,1.61,1.61,0,0,1,.82-2.27C94.36,304.33,98.82,315.05,99.41,317.89Z" style="fill:#fff;opacity:0.30000000000000004"></path><path d="M430.88,220.77a5.22,5.22,0,0,1,0,.55c0,.1,0,.22,0,.33s-.05.47-.08.74l-.06.41c0,.18,0,.34-.09.52s-.07.35-.11.54-.08.37-.13.56-.09.36-.14.54-.12.42-.19.64l-.2.6c-.07.21-.15.41-.23.61s-.17.41-.26.61-.19.42-.29.62l-.31.59c-.12.2-.23.4-.36.59a2.51,2.51,0,0,0-.57-.15,1.76,1.76,0,0,0-2.09,1.31,1.46,1.46,0,0,0,.59,1.3,8.09,8.09,0,0,1-.85.67l-.25.16a2.29,2.29,0,0,1-.29.18,3,3,0,0,1-.43.24,1.91,1.91,0,0,1-.32.16,3.41,3.41,0,0,1-.48.22l-.57.21-.63.19A11.26,11.26,0,0,1,420,234a13.48,13.48,0,0,1-1.4,0,16.6,16.6,0,0,1-2.58-.44c-.36-.09-.73-.19-1.11-.31a1.85,1.85,0,0,1-1.48-2.37,7.9,7.9,0,0,1,.46-1.45,9.81,9.81,0,0,1,4-2.42c2.5-.85,5.19-1,7.68-1.91,2.16-.77,4.28-2.24,5.08-4.33Z" style="fill:#263238"></path><path d="M415.85,232.33l-3.32,2.44c-1,.35-1.47-.64-.86-1.12C413.08,233.43,415.29,231.69,415.85,232.33Z" style="fill:#263238"></path><path d="M430.88,220.77a5.22,5.22,0,0,1,0,.55c0,.1,0,.22,0,.33s-.05.47-.08.74l-.06.41c0,.18,0,.34-.09.52s-.07.35-.11.54-.08.37-.13.56-.09.36-.14.54-.12.42-.19.64l-.2.6c-.07.21-.15.41-.23.61s-.17.41-.26.61-.19.42-.29.62l-.31.59c-.12.2-.23.4-.36.59a2.51,2.51,0,0,0-.57-.15,1.76,1.76,0,0,0-2.09,1.31,1.46,1.46,0,0,0,.59,1.3,8.09,8.09,0,0,1-.85.67l-.25.16a2.29,2.29,0,0,1-.29.18,3,3,0,0,1-.43.24,1.91,1.91,0,0,1-.32.16,3.41,3.41,0,0,1-.48.22l-.57.21-.63.19A11.26,11.26,0,0,1,420,234a13.38,13.38,0,0,1-1.4,0,16.6,16.6,0,0,1-2.58-.44c-.36-.09-.73-.19-1.11-.31a1.85,1.85,0,0,1-1.48-2.37,7.9,7.9,0,0,1,.46-1.45,9.81,9.81,0,0,1,4-2.42c2.5-.85,5.19-1,7.68-1.91,2.16-.77,4.28-2.24,5.08-4.33Z" style="fill:#fff;opacity:0.30000000000000004"></path></g></svg>