<svg id="Layer_1" data-name="Layer 1" xmlns="http://www.w3.org/2000/svg" viewBox="0 0 858.43 858.43"><defs><style>.cls-1,.cls-2,.cls-3,.cls-5{fill:none;}.cls-2,.cls-4{stroke:#fff200;}.cls-2,.cls-3,.cls-4,.cls-5{stroke-linecap:round;stroke-linejoin:round;stroke-width:50px;}.cls-3{stroke:#fbb040;}.cls-4{fill:#fff200;}.cls-5{stroke:#00aeef;}</style></defs><path class="cls-1" d="M0,0H858.43V858.43H0Z"/><path class="cls-2" d="M91.59,514.32h35.77"/><path class="cls-2" d="M413.5,192.4v35.77"/><path class="cls-2" d="M699.65,514.32h35.76"/><path class="cls-2" d="M184.59,285.4l25,25"/><path class="cls-3" d="M270.43,514.32a143.07,143.07,0,1,1,286.14,0"/><polyline class="cls-4" points="419.15 535.38 396.56 580.55 430.44 580.55 407.86 625.72"/><path class="cls-5" d="M572.77,361.38c-38.22,0-69.19-29.81-69.19-66.6s31-66.59,69.19-66.59c5.84-26.18,26.65-47.55,54.6-56.06s58.77-2.87,80.88,14.8,32.12,44.67,26.3,70.85h14.71a51.8,51.8,0,0,1,0,103.6H572.77"/></svg>